<svg width="20" height="20" viewBox="0 0 20 20" fill="none" xmlns="http://www.w3.org/2000/svg">
<path d="M9.26816 4.25118C9.14486 3.91553 8.89781 3.63978 8.57768 3.48048C8.25754 3.32119 7.88858 3.29043 7.54649 3.39451C5.92482 3.89451 4.79149 5.28618 5.03482 6.89618C5.30696 8.68308 5.91247 10.4029 6.81982 11.9662C7.71747 13.5258 8.89426 14.9071 10.2915 16.0412C11.5482 17.0578 13.3115 16.7778 14.5548 15.6112C14.8164 15.3657 14.975 15.0302 14.9989 14.6723C15.0227 14.3144 14.9099 13.9608 14.6832 13.6828L13.7932 12.5945C13.6149 12.3757 13.375 12.2154 13.1045 12.1346C12.8341 12.0538 12.5456 12.0561 12.2765 12.1412L10.2232 12.7912L9.86482 12.4212C9.41333 11.9529 9.0184 11.4333 8.68815 10.8728C8.36763 10.3061 8.11798 9.70215 7.94482 9.07452L7.80649 8.58285L9.38982 7.12452C9.59875 6.93052 9.74531 6.67881 9.81089 6.40134C9.87648 6.12388 9.85812 5.83319 9.75816 5.56618L9.26982 4.25285L9.26816 4.25118ZM7.05649 1.80118C7.80508 1.57214 8.61292 1.63806 9.31447 1.98543C10.016 2.3328 10.5582 2.93531 10.8298 3.66951L11.3182 4.98285C11.5336 5.55984 11.5725 6.18786 11.4301 6.78706C11.2876 7.38625 10.9702 7.92954 10.5182 8.34785L9.70149 9.09952C9.80649 9.38952 9.94815 9.72118 10.1315 10.0428C10.3148 10.3595 10.5282 10.6478 10.7232 10.8828L11.7732 10.5495C12.3602 10.3642 12.9893 10.3593 13.5791 10.5355C14.169 10.7117 14.6923 11.0609 15.0815 11.5378L15.9715 12.6262C16.4661 13.231 16.7127 14.0011 16.6613 14.7807C16.6099 15.5604 16.2645 16.2914 15.6948 16.8262C14.0382 18.3812 11.3332 19.0262 9.24482 17.3362C7.68872 16.0738 6.37804 14.536 5.37815 12.7995C4.3659 11.0559 3.69029 9.13763 3.38649 7.14452C2.98649 4.48951 4.89149 2.46785 7.05649 1.80285V1.80118Z" fill="#73C4FF"/>
</svg>
