<svg width="100" height="100" viewBox="0 0 100 100" fill="none" xmlns="http://www.w3.org/2000/svg">
<circle cx="50" cy="50" r="50" fill="url(#paint0_linear_15699_5775)"/>
<path fill-rule="evenodd" clip-rule="evenodd" d="M49.999 25.0001C36.1919 25.0001 24.999 36.1929 24.999 50.0001C24.999 54.5383 26.2103 58.7991 28.3272 62.4708C28.7583 63.2186 28.8323 64.1291 28.4684 64.9118L26.3342 69.5041C25.0237 71.9833 26.8174 75.0001 29.653 75.0001H49.999C63.806 75.0001 74.999 63.8071 74.999 50.0001C74.999 36.1929 63.806 25.0001 49.999 25.0001ZM42.499 42.5001C41.1183 42.5001 39.999 43.6194 39.999 45.0001C39.999 46.3808 41.1183 47.5001 42.499 47.5001H47.499C48.8798 47.5001 49.999 46.3808 49.999 45.0001C49.999 43.6194 48.8798 42.5001 47.499 42.5001H42.499ZM42.499 52.5001C41.1183 52.5001 39.999 53.6193 39.999 55.0001C39.999 56.3808 41.1183 57.5001 42.499 57.5001H57.499C58.8798 57.5001 59.999 56.3808 59.999 55.0001C59.999 53.6193 58.8798 52.5001 57.499 52.5001H42.499Z" fill="white"/>
<defs>
<linearGradient id="paint0_linear_15699_5775" x1="0" y1="50" x2="100" y2="50" gradientUnits="userSpaceOnUse">
<stop stop-color="#00C6FF"/>
<stop offset="1" stop-color="#0072FF"/>
</linearGradient>
</defs>
</svg>
