<svg width="22" height="18" viewBox="0 0 22 18" fill="none" xmlns="http://www.w3.org/2000/svg">
<g clip-path="url(#clip0_7663_8231)">
<path d="M12.3545 8.98514L14.4835 11.4187L17.3466 13.2482L17.8447 9.00049L17.3466 4.84863L14.4287 6.45575L12.3545 8.98514Z" fill="#00832D"/>
<path d="M0 12.8521V16.4717C0 17.2981 0.670863 17.9692 1.4975 17.9692H5.11712L5.86663 15.2343L5.11712 12.8521L2.6338 12.1025L8.53081e-05 12.8521H0Z" fill="#0066DA"/>
<path d="M5.11712 0L0 5.11712L2.63397 5.86484L5.11712 5.11712L5.85299 2.76731L5.11712 0Z" fill="#E94235"/>
<path d="M0 12.8543H5.11703V5.11719H0V12.8543Z" fill="#2684FC"/>
<path d="M20.6156 2.16684L17.3467 4.84858V13.248L20.6291 15.9402C21.1205 16.3251 21.8393 15.9743 21.8393 15.3497V2.7454C21.8393 2.11386 21.1033 1.76478 20.6155 2.16692" fill="#00AC47"/>
<path d="M12.3546 8.98438V12.8521H5.11719V17.9692H15.8493C16.6759 17.9692 17.3467 17.2982 17.3467 16.4717V13.2474L12.3546 8.98438Z" fill="#00AC47"/>
<path d="M15.8493 0H5.11719V5.11712H12.3546V8.98482L17.3468 4.84823V1.49758C17.3468 0.670948 16.6759 8.53081e-05 15.8493 8.53081e-05" fill="#FFBA00"/>
</g>
<defs>
<clipPath id="clip0_7663_8231">
<rect width="21.8389" height="18" fill="white"/>
</clipPath>
</defs>
</svg>
