<svg width="350" height="350" viewBox="0 0 350 350" fill="none" xmlns="http://www.w3.org/2000/svg">
<path opacity="0.75" d="M109.699 21.6451C94.6778 30.9363 89.3824 45.2474 83.2704 65.1294C77.2167 77.6711 62.7079 83.1706 51.7672 91.791C25.1996 112.878 25.3162 145.292 36.8954 174.423C39.8963 192.977 28.3917 211.284 30.5014 229.96C35.1324 271.01 69.7371 285.373 119.103 279.511C136.726 277.417 153.867 271.928 171.587 270.988C202.429 269.358 232.801 285.195 263.323 280.46C298.051 275.641 324.864 242.025 321.792 207.087C320.57 189.963 313.094 174.022 307.52 157.782C304.82 151.641 305.251 144.771 309.989 139.777C316.519 131.756 326.109 126.464 331.813 117.834C350.648 85.9965 317.236 54.2437 288.043 44.4697C272.98 38.1632 257.211 33.234 243.298 24.6817C233.343 18.5599 224.165 10.5164 212.809 7.75208C195.377 3.50671 178.312 12.2535 161.239 14.347C138.165 13.4817 125.173 12.0785 109.705 21.6484L109.699 21.6451Z" fill="#FFDFB0"/>
<path opacity="0.75" d="M39.8737 85.7724C21.1908 90.6011 5.64498 71.7627 16.051 55.9868C25.9968 40.9076 50.1436 49.2201 62.6723 38.8076C66.9079 35.4729 70.826 28.7322 76.6204 30.4368C89.1556 34.1215 82.9043 50.5585 77.6024 58.803C69.4454 72.4433 55.507 82.6516 39.8737 85.7757V85.7724Z" fill="#FFDFB0"/>
<path d="M288.679 149.317C288.679 174.112 280.684 197.04 267.125 215.665C267.125 215.671 267.118 215.675 267.115 215.681C246.595 243.862 213.345 262.179 175.817 262.179C113.485 262.179 62.9551 211.65 62.9551 149.317C62.9551 111.994 81.0708 78.9023 108.99 58.356C127.695 44.5893 150.805 36.4551 175.814 36.4551C178.909 36.4551 181.978 36.5782 185.011 36.8245C202.994 38.2764 219.784 43.9379 234.393 52.8273C245.976 59.8727 256.187 68.9435 264.539 79.5504C267.06 82.7523 269.413 86.0935 271.581 89.5611C282.415 106.893 288.679 127.371 288.679 149.314V149.317Z" fill="#375A64"/>
<g opacity="0.2">
<path d="M200.188 202.588C198.765 206.383 201.137 206.539 201.293 208.12C201.452 209.701 201.293 212.702 196.707 217.288C192.125 221.87 184.535 220.924 182.957 222.82C181.375 224.716 178.689 232.779 174.894 235.465C171.099 238.152 170.467 236.57 165.094 237.679C159.721 238.784 155.608 245.742 154.03 249.06C152.448 252.379 154.347 257.911 150.553 258.07C146.758 258.228 145.021 250.007 141.543 245.583C138.066 241.156 136.958 237.206 135.853 231.988C134.747 226.77 136.485 215.865 135.853 211.597C135.221 207.329 123.839 199.743 119.73 194.525C115.621 189.307 109.93 178.876 110.244 175.398C110.562 171.921 113.09 168.126 114.985 166.703C116.881 165.281 116.091 164.49 116.408 163.226C116.726 161.962 118.304 161.645 118.622 160.063C118.939 158.482 117.672 153.74 116.094 152.95C114.512 152.159 113.407 154.845 112.458 154.372C111.508 153.899 108.663 150.577 107.558 150.263C106.453 149.945 106.767 152.318 105.185 149.314C103.604 146.309 102.813 138.723 101.549 137.459C100.285 136.195 99.3359 139.672 96.3317 137.459C93.3276 135.245 92.0637 130.977 90.7998 130.345C89.5359 129.714 87.7956 130.504 86.4961 127.973C85.1933 125.445 87.6368 120.86 86.4961 121.333C85.3521 121.806 82.8956 125.442 82.2637 121.965C81.6317 118.488 85.4266 106.792 84.7915 100.466C84.1595 94.1432 86.3729 87.5029 90.7965 82.1297C90.7965 82.1297 91.4285 78.6524 92.0604 76.439C92.6924 74.2256 106.287 65.3751 107.869 62.8441C108.527 61.7876 108.747 60.1316 108.984 58.3492C127.689 44.5825 150.799 36.4482 175.808 36.4482C178.903 36.4482 181.972 36.5714 185.005 36.8177C185.109 36.9635 185.212 37.1029 185.322 37.239C186.69 38.9793 188.168 40.0844 192.173 41.5621C196.176 43.0367 197.125 44.9325 196.283 46.514C195.44 48.0955 194.069 48.4098 192.488 48.5168C190.906 48.6205 189.432 47.7779 187.747 48.8344C186.058 49.8876 184.373 55.5783 182.16 55.8927C179.946 56.2103 176.047 50.8339 175.205 49.2524C174.362 47.6709 177.101 44.2973 175.808 42.7191C174.515 41.1376 172.256 41.4552 168.668 41.1376C165.087 40.82 156.762 42.1941 157.079 43.5617C157.397 44.9293 169.3 43.351 169.618 46.0894C169.935 48.8311 160.874 53.4654 159.293 53.0441C157.711 52.6228 155.605 49.8811 153.285 49.5668C150.964 49.2492 149.068 51.1482 147.61 51.3589C146.152 51.5663 144.434 49.7774 142.221 50.1987C140.007 50.62 139.479 52.5158 138.319 53.2547C137.162 53.9904 134.42 53.9904 134.106 55.6756C133.788 57.364 137.583 58.3135 138.533 59.3635C139.482 60.4168 137.372 64.001 138.322 64.7367C139.272 65.4723 145.173 60.3098 146.647 59.0459C148.122 57.782 149.386 52.3019 152.546 52.4057C155.709 52.5094 156.762 57.8857 157.815 58.4107C158.868 58.939 161.189 57.1469 164.666 57.8825C168.143 58.6214 170.564 66.2112 171.196 68.5283C171.828 70.8455 173.306 73.1658 172.039 74.1154C170.775 75.0649 165.084 73.4834 164.348 72.0056C163.61 70.5279 168.143 68.3177 167.826 67.7927C167.508 67.2644 164.873 66.5288 163.506 67.3519C162.138 68.1783 161.503 69.8959 160.028 70.3205C158.551 70.7418 154.655 66.3149 153.602 67.5788C152.546 68.8427 154.655 72.8482 155.709 73.7978C156.765 74.7473 160.664 75.2723 160.978 76.3256C161.296 77.3788 158.343 79.6959 154.759 79.4885C151.178 79.2779 148.229 76.5362 146.855 77.6964C145.487 78.8566 146.223 81.9094 145.273 82.9658C144.324 84.0191 139.161 83.2834 136.634 86.0186C134.106 88.7603 132.946 92.8695 130.415 95.1867C127.887 97.507 126.73 94.5547 123.356 97.8246C119.983 101.091 119.458 108.36 119.351 110.891C119.247 113.419 119.351 115.422 118.511 115.104C117.669 114.787 116.509 112.576 116.191 111.206C115.873 109.838 116.93 107.518 116.93 106.675C116.93 105.833 112.082 101.509 109.236 101.088C106.391 100.667 103.863 102.984 101.757 104.669C99.647 106.357 95.8553 106.04 94.4845 107.411C93.1137 108.778 92.0604 120.902 93.1137 123.747C94.1702 126.593 95.5377 126.593 98.9114 125.115C102.282 123.637 100.386 120.792 102.389 121.427C104.391 122.059 105.441 124.169 105.441 125.854C105.441 127.539 101.439 131.545 101.964 132.705C102.492 133.865 105.97 132.494 107.655 133.022C109.343 133.551 110.183 134.604 109.658 138.924C109.129 143.244 109.447 146.614 111.975 148.037C114.503 149.459 115.925 145.982 117.034 146.455C118.139 146.928 119.72 149.459 121.302 149.301C122.883 149.142 122.092 147.719 125.097 146.773C128.101 145.823 126.992 145.191 127.624 143.295C128.256 141.4 130.152 139.818 132.207 140.768C134.261 141.717 132.839 143.14 132.997 144.718C133.156 146.3 136.792 146.458 139.638 147.405C142.483 148.354 144.065 147.405 149.755 149.301C155.446 151.196 155.76 156.887 158.133 157.837C160.505 158.786 168.406 157.205 174.097 161.314C179.787 165.423 178.206 173.01 181.051 175.223C183.897 177.437 194.487 180.441 198.597 181.228C202.706 182.019 203.338 179.174 206.66 179.964C209.978 180.755 211.877 181.705 212.982 186.287C213.954 190.322 201.601 198.774 200.178 202.569L200.188 202.588Z" fill="black"/>
<path d="M115.251 121.761C115.355 122.655 117.99 123.024 121.153 124.817C124.316 126.609 125.473 131.878 127.158 131.771C128.843 131.664 128.318 129.243 128.95 128.611C129.582 127.98 130.635 126.609 128.95 125.238C127.265 123.867 125.622 120.918 122.543 120.497C119.464 120.075 118.939 118.812 117.569 118.915C116.198 119.022 115.041 119.968 115.251 121.761Z" fill="black"/>
<path d="M132.641 130.615C132.171 131.905 132.641 132.828 136.015 133.671C139.388 134.513 142.548 132.828 141.495 132.141C140.441 131.457 138.86 131.772 139.492 130.615C140.124 129.455 139.91 127.769 137.171 128.087C134.433 128.405 133.062 129.458 132.641 130.615Z" fill="black"/>
<path d="M144.443 130.971C143.293 131.136 142.651 133.139 143.812 134.406C144.972 135.673 144.972 135.459 146.339 134.406C147.71 133.353 149.817 132.828 149.292 131.775C148.763 130.718 145.604 130.806 144.443 130.974V130.971Z" fill="black"/>
<path d="M153.612 135.278C154.127 133.696 156.771 135.248 157.932 136.937C159.092 138.622 158.564 141.046 157.932 142.838C157.3 144.63 156.878 146.737 155.404 145.894C153.929 145.052 155.511 142.521 155.297 141.046C155.086 139.572 153.19 136.571 153.612 135.278Z" fill="black"/>
<path d="M199.028 47.3635C198.477 48.6857 201.03 49.1556 202.505 49.9982C203.98 50.8408 205.14 51.369 205.982 49.9982C206.825 48.6274 205.665 47.0491 204.508 46.7315C203.348 46.4139 199.556 46.0996 199.028 47.3635Z" fill="black"/>
<path d="M218.945 59.6908C219.917 60.7181 221.58 60.5334 222.74 62.008C223.9 63.4825 223.479 66.0135 224.953 66.7492C226.428 67.488 227.481 66.7492 227.588 65.6959C227.695 64.6427 225.482 62.008 225.692 61.4797C225.903 60.9515 228.748 62.2186 229.38 63.7968C230.012 65.3783 228.748 67.5917 230.223 68.013C231.697 68.4343 231.383 66.5385 232.015 66.1172C232.647 65.6959 234.018 65.9066 233.911 64.6427C233.804 63.3788 232.119 60.6371 230.748 59.6908C229.377 58.7413 228.324 57.688 226.007 57.163C223.69 56.6348 221.476 57.0561 220.316 58.0056C219.156 58.9552 218.346 59.0589 218.945 59.6908Z" fill="black"/>
<path d="M264.539 79.5535C264.413 80.0785 264.218 80.4642 263.946 80.6619C261.733 82.2434 259.098 76.7633 256.042 75.71C252.986 74.6535 251.615 70.7549 250.983 71.6008C250.351 72.4401 250.558 73.6003 249.612 74.9711C248.663 76.342 247.295 76.0276 246.663 78.6591C246.031 81.2938 249.612 86.142 248.773 87.7234C247.93 89.3049 246.877 88.7767 245.189 88.673C243.503 88.566 243.821 90.0406 241.611 89.4086C239.397 88.7767 241.29 86.035 237.813 82.7684C234.335 79.5017 233.175 78.8697 233.917 77.3952C234.663 75.9174 233.596 73.8142 235.178 73.6003C236.759 73.3897 238.023 75.71 239.077 76.342C240.13 76.9739 241.501 75.0781 241.604 73.3897C241.708 71.7045 237.916 69.3873 236.546 68.0781C235.178 66.7656 235.068 62.0082 235.596 61.0586C236.124 60.1091 237.706 60.4267 238.124 58.1096C238.37 56.7484 236.215 54.4702 234.394 52.8271C245.976 59.8725 256.188 68.9434 264.539 79.5503V79.5535Z" fill="black"/>
<path d="M280.277 174.03C280.594 170.657 278.909 170.446 280.594 164.23C282.283 158.011 278.805 151.374 277.541 150.004C276.278 148.633 273.536 149.054 271.322 150.425C269.109 151.793 270.69 152.849 269.213 153.374C267.738 153.902 266.264 153.056 264.893 153.167C263.522 153.27 262.255 156.748 259.306 156.644C256.357 156.537 254.461 152.321 252.247 149.32C250.034 146.316 245.5 144.42 244.029 140.732C242.551 137.047 245.397 131.356 244.765 127.033C244.133 122.71 241.287 123.66 240.759 121.239C240.234 118.815 241.184 119.975 241.919 117.655C242.655 115.337 241.077 114.074 242.551 110.068C244.029 106.066 246.66 104.063 246.028 102.271C245.396 100.479 243.394 97.5295 243.287 95.4263C243.183 93.3263 245.29 93.4203 249.292 90.4647C253.297 87.5156 254.351 87.7263 257.407 88.7795C260.463 89.8328 262.362 90.361 264.151 90.6754C265.943 90.993 268.367 95.6305 269.106 95.4166C269.841 95.2059 269.948 93.8351 270.266 91.8356C270.399 90.9897 270.969 90.1957 271.582 89.567C282.415 106.899 288.68 127.377 288.68 149.32C288.68 174.115 280.685 197.043 267.126 215.667C277.875 199.26 279.962 177.401 280.277 174.03Z" fill="black"/>
</g>
<path d="M198.242 95.1054C214.413 93.6341 230.462 90.3772 246.082 85.341C246.082 85.341 243.755 83.7142 241.169 84.1809C241.166 84.1582 236.162 74.073 227.649 75.9623C219.725 77.667 216.504 85.3799 216.51 85.4059C216.51 85.4059 212.813 82.8003 209.264 84.7869C205.715 86.7767 203.7 91.2586 203.7 91.2619C203.7 91.2716 199.697 93.3457 198.242 95.1054Z" fill="white"/>
<path d="M135.269 118.38C115.134 113.882 95.482 106.535 76.9287 96.3336C76.9417 96.2947 76.8931 93.4526 84.6579 96.8262C84.6676 96.7873 91.7227 87.5285 102.91 93.6762C109.887 97.4711 113.523 106.234 113.52 106.254C113.52 106.263 118.864 102.011 123.187 104.38C127.507 106.766 130.096 113.782 130.093 113.788C130.093 113.801 134.581 116.556 135.269 118.374V118.38Z" fill="white"/>
<path d="M284.054 128.657C265.501 138.855 245.849 146.205 225.714 150.703C225.708 150.665 225.73 147.822 234.007 145.123C233.994 145.084 241.594 130.28 252.875 127.963C259.891 126.485 263.401 132.552 263.404 132.575C263.404 132.584 268.628 124.35 272.734 123.53C276.847 122.726 279.248 127.853 279.251 127.859C279.258 127.872 283.432 127.341 284.054 128.66V128.657Z" fill="white"/>
<path d="M204.679 72.5112C190.961 69.9608 177.493 66.1172 164.465 61.0196C164.465 61.026 168.762 59.733 170.418 60.3196C172.071 60.9159 178.928 53.5399 185.128 55.776C191.331 57.9992 193.213 65.5501 193.21 65.5663C193.204 65.5955 201.357 65.5825 204.679 72.5112Z" fill="white"/>
<path d="M165.236 243.285C151.3 242.514 137.424 240.424 123.793 237.018C123.793 237.028 127.656 235.184 129.38 235.556C131.104 235.939 136.134 227.71 142.618 229.14C149.103 230.556 152.568 237.831 152.568 237.847C152.568 237.877 160.491 236.814 165.236 243.285Z" fill="white"/>
<path d="M123.236 189.434C111.586 186.489 100.123 182.58 88.9619 177.706C88.9619 177.706 90.6244 176.682 92.4716 177.23C92.4749 177.217 96.0462 170.178 102.139 172.333C107.807 174.31 110.117 180.321 110.114 180.338C110.114 180.338 112.765 178.792 115.312 180.629C117.86 182.47 119.311 185.989 119.308 185.993C119.308 185.999 122.186 187.973 123.236 189.434Z" fill="white"/>
<path d="M205.91 228.365C222.03 226.278 237.974 222.405 253.436 216.753C253.436 216.753 251.131 215.217 248.571 215.784C248.568 215.761 243.616 205.874 235.161 208.09C227.293 210.103 224.087 217.936 224.094 217.965C224.094 217.965 220.419 215.502 216.887 217.625C213.354 219.751 211.348 224.307 211.348 224.31C211.348 224.32 207.362 226.55 205.91 228.361V228.365Z" fill="white"/>
<path d="M123.835 81.3586C123.835 81.3586 124.503 81.2549 125.76 81.1025" stroke="white" stroke-miterlimit="10"/>
<path d="M129.529 80.694C149.275 78.7853 216.216 75.7066 264.234 114.453" stroke="white" stroke-miterlimit="10"/>
<path d="M265.705 115.655C266.201 116.07 266.696 116.488 267.189 116.909C267.189 116.909 266.515 116.848 265.251 116.783" stroke="white" stroke-miterlimit="10"/>
<path d="M261.414 116.667C243.448 116.417 187.266 119.506 145.788 164.208" stroke="white" stroke-miterlimit="10"/>
<path d="M144.491 165.631C144.057 166.11 143.626 166.593 143.198 167.083C143.198 167.083 143.876 167.028 145.136 166.95" stroke="white" stroke-miterlimit="10"/>
<path d="M149.112 166.726C168.566 165.77 231.191 164.442 263.899 184.434" stroke="white" stroke-miterlimit="10"/>
<path d="M265.585 185.5C266.13 185.856 266.668 186.223 267.193 186.592C267.193 186.592 266.531 186.634 265.258 186.77" stroke="white" stroke-miterlimit="10"/>
<path d="M261.466 187.24C246.575 189.334 203.988 197.782 149.599 230.015" stroke="white" stroke-miterlimit="10"/>
<path d="M147.949 230.996C147.395 231.327 146.841 231.664 146.283 231.997" stroke="white" stroke-miterlimit="10"/>
<path d="M41.4234 99.3907C41.4234 99.3907 41.4137 99.3907 41.4072 99.3907C41.4007 99.3907 41.3975 99.3907 41.391 99.3907H41.4234ZM21.9238 89.6005C24.5326 94.8958 30.6674 99.3843 41.4072 99.3907C46.1905 99.3907 50.0535 98.4931 53.1062 97.0347C55.1609 99.5625 59.335 100.496 62.3553 99.3194C62.7507 99.1639 62.7507 98.5968 62.3586 98.4315C59.2928 97.1481 58.4113 94.9736 58.1683 93.444C59.3155 92.2546 60.2197 90.9551 60.8873 89.6005C63.7424 83.8093 63.3308 77.3667 59.766 71.9222C56.3049 66.643 48.6956 63.3213 41.4072 63.3213C34.1187 63.3213 26.5095 66.6398 23.0484 71.9222C19.4803 77.3634 19.072 83.8093 21.9271 89.6005H21.9238Z" fill="white"/>
<path d="M41.4072 99.3907C41.4137 99.3907 41.4234 99.3907 41.4234 99.3907H41.391C41.3975 99.3907 41.4007 99.3907 41.4072 99.3907ZM41.4072 99.3907C30.6674 99.3843 24.5326 94.8958 21.9238 89.6005H21.9271C19.072 83.8093 19.4803 77.3634 23.0484 71.9222C26.5095 66.6398 34.1187 63.3213 41.4072 63.3213C48.6956 63.3213 56.3049 66.643 59.766 71.9222C63.3308 77.3667 63.7424 83.8093 60.8873 89.6005C60.2197 90.9551 59.3155 92.2546 58.1683 93.444C58.4113 94.9736 59.2928 97.1481 62.3586 98.4315C62.7507 98.5968 62.7507 99.1639 62.3553 99.3194C59.335 100.496 55.1609 99.5625 53.1062 97.0347C50.0535 98.4931 46.1905 99.3907 41.4072 99.3907Z" stroke="#231F20" stroke-miterlimit="10"/>
<path d="M29.7268 85.7793L29.7009 78.9349C29.6685 77.6094 30.8027 76.2775 33.1069 75.2566C37.6634 73.2409 45.0652 73.2117 49.6379 75.1918C51.9518 76.1932 53.0958 77.5187 53.0731 78.8409L53.099 85.6594C53.1217 86.9784 51.9907 89.0006 49.693 90.0182C45.1365 92.0339 37.7347 92.0631 33.162 90.083C30.8805 89.0946 29.7333 87.0983 29.7203 85.7923V85.789C29.7203 85.789 29.7203 85.7826 29.7203 85.7793H29.7268Z" fill="#1A2E35"/>
<path d="M41.3514 69.2188L58.3037 78.9183L41.4259 88.7507L24.4736 79.0512L41.3514 69.2188Z" fill="#375A64"/>
<path d="M58.3036 78.918L58.3068 79.6147L41.429 89.4471L41.4258 88.7504L58.3036 78.918Z" fill="#2B454E"/>
<path d="M24.4736 79.0508L24.4769 79.7475L41.4292 89.4471L41.4259 88.7503L24.4736 79.0508Z" fill="#1A2E35"/>
<path opacity="0.1" d="M51.676 83.4775L41.432 90.4937L31.1621 83.5748L41.4288 89.447L51.676 83.4775Z" fill="black"/>
<path d="M32.6465 82.0168L40.1585 77.5737C40.3335 77.47 40.5604 77.5251 40.6608 77.7001C40.7516 77.8557 40.7159 78.0501 40.5831 78.1635C40.5669 78.1797 40.5474 78.1927 40.528 78.2024L33.0127 82.652" fill="#E1E1E1"/>
<path d="M31.5388 88.3616C31.7818 88.5399 32.4073 88.5528 32.686 88.3584L33.6485 93.0704C33.6517 94.2177 30.6702 94.2306 30.667 93.0834L31.5388 88.3649V88.3616Z" fill="#F7941D"/>
<path opacity="0.15" d="M32.9226 93.8224L32.5078 89.7715L33.1138 93.7511C33.0523 93.777 32.9907 93.803 32.9226 93.8224Z" fill="black"/>
<path opacity="0.15" d="M32.2544 93.9322C32.1928 93.9322 32.128 93.9322 32.0664 93.9322L32.1442 90.9961L32.2511 93.9322H32.2544Z" fill="black"/>
<path d="M32.1311 88.2907C32.3352 88.2907 32.4973 88.1254 32.4973 87.9212L32.4649 83.6078C32.4649 83.2157 32.6755 82.8495 33.0158 82.6518L32.6496 82.0166C32.0792 82.3439 31.7292 82.9564 31.7324 83.611L31.7649 87.9245C31.7649 88.1286 31.9301 88.2907 32.1343 88.2907H32.1311Z" fill="#E1E1E1"/>
<path d="M32.9352 87.9209C32.9352 87.4769 32.5722 87.1172 32.125 87.1172C31.681 87.1172 31.3213 87.4802 31.3213 87.9274C31.3213 88.3746 31.6843 88.7311 32.1315 88.7311C32.5755 88.7311 32.9352 88.3681 32.9352 87.9209Z" fill="#F7941D"/>
<path opacity="0.15" d="M31.3314 87.9725C31.3767 88.1669 31.7753 88.5331 32.2291 88.2771C32.7152 88.0016 32.6179 87.3827 32.2388 87.1299C32.6309 87.1817 32.9355 87.5155 32.9355 87.9206C32.9355 88.3646 32.5791 88.7276 32.1318 88.7308C31.7008 88.7308 31.3541 88.397 31.3281 87.9725H31.3314Z" fill="black"/>
<path d="M157.231 86.2425C157.445 86.2587 157.629 86.0999 157.649 85.886C157.668 85.6721 157.506 85.4874 157.292 85.4679L156.583 85.4128L157.526 84.0452C162.957 84.4665 166.804 84.1425 166.914 82.7749C167.024 81.4073 163.275 80.4772 157.847 80.0267L157.134 78.5263L157.843 78.5846C158.057 78.6008 158.242 78.442 158.261 78.2281C158.278 78.0142 158.119 77.8295 157.905 77.8101L156.751 77.7193L153.06 69.9415L152.529 69.8994L153.219 79.8452C148.714 79.8193 144.368 80.1402 144.368 80.1402L141.867 76.8638L141.387 76.8249L142.029 80.0332C142.029 80.0332 140.872 79.9943 140.817 80.6846C140.761 81.3749 141.909 81.5207 141.909 81.5207L140.765 84.5865L141.244 84.6253L144.235 81.7897C144.235 81.7897 148.474 82.7943 152.927 83.4878L150.665 93.1971L151.197 93.2392L156.077 86.1485L157.231 86.2425Z" fill="#FFC800"/>
<path d="M130.981 66.9246C130.624 63.35 128.161 59.7949 123.835 59.7949C119.509 59.7949 117.049 63.3533 116.692 66.9246C116.145 72.4403 119.865 77.4375 123.835 81.994C127.808 77.4343 131.529 72.4403 130.981 66.9246ZM123.835 70.8912C121.674 70.8912 119.924 69.1412 119.924 66.9796C119.924 64.8181 121.674 63.0681 123.835 63.0681C125.997 63.0681 127.753 64.8181 127.753 66.9796C127.753 69.1412 126.003 70.8912 123.835 70.8912Z" fill="#FFC800"/>
<path d="M151.657 216.928C151.3 213.354 148.837 209.799 144.511 209.799C140.184 209.799 137.725 213.357 137.368 216.928C136.821 222.444 140.541 227.441 144.511 231.998C148.484 227.438 152.204 222.444 151.657 216.928ZM144.511 220.895C142.349 220.895 140.599 219.145 140.599 216.984C140.599 214.822 142.349 213.072 144.511 213.072C146.672 213.072 148.429 214.822 148.429 216.984C148.429 219.145 146.679 220.895 144.511 220.895Z" fill="#FFC800"/>
<path d="M148.84 152.506C148.484 148.931 146.021 145.376 141.694 145.376C137.368 145.376 134.908 148.934 134.552 152.506C134.004 158.021 137.725 163.019 141.694 167.575C145.668 163.015 149.388 158.021 148.84 152.506ZM141.694 156.472C139.533 156.472 137.783 154.722 137.783 152.561C137.783 150.399 139.533 148.649 141.694 148.649C143.856 148.649 145.613 150.399 145.613 152.561C145.613 154.722 143.863 156.472 141.694 156.472Z" fill="#FFC800"/>
<path d="M276.533 171.888C276.176 168.314 273.713 164.759 269.387 164.759C265.06 164.759 262.601 168.317 262.244 171.888C261.697 177.404 265.417 182.401 269.387 186.958C273.36 182.398 277.08 177.404 276.533 171.888ZM269.387 175.855C267.225 175.855 265.475 174.105 265.475 171.944C265.475 169.782 267.225 168.032 269.387 168.032C271.548 168.032 273.305 169.782 273.305 171.944C273.305 174.105 271.555 175.855 269.387 175.855Z" fill="#FFC800"/>
<path d="M274.338 101.841C273.982 98.266 271.519 94.7109 267.193 94.7109C262.866 94.7109 260.406 98.2693 260.05 101.841C259.502 107.356 263.223 112.354 267.193 116.91C271.166 112.35 274.886 107.356 274.338 101.841ZM267.193 105.807C265.031 105.807 263.281 104.057 263.281 101.896C263.281 99.7341 265.031 97.9841 267.193 97.9841C269.354 97.9841 271.111 99.7341 271.111 101.896C271.111 104.057 269.361 105.807 267.193 105.807Z" fill="#FFC800"/>
<path d="M74.7343 298.58C59.4023 290.248 42.7709 283.378 33.3662 287.292C23.9616 291.204 24.1139 302.793 48.5264 317.49C74.4621 333.104 93.0445 336.027 102.575 329.808C115.169 321.589 94.7653 309.469 74.7343 298.58Z" fill="#FFDFB0"/>
<path opacity="0.4" d="M74.8511 133.009C78.6978 133.382 83.2187 136.713 84.1358 138.36C85.821 141.383 87.2307 178.982 83.5103 182.58C78.8404 187.094 57.5326 194.561 48.7113 193.277C41.4326 192.218 37.2812 186.857 36.39 184.777C34.9284 181.371 43.0173 148.231 45.7525 144.812C50.1858 139.274 69.9478 132.533 74.8511 133.006V133.009Z" fill="white"/>
<path opacity="0.3" d="M74.8477 133.009C78.6944 133.382 83.2153 136.714 84.1324 138.36C85.8176 141.383 87.2273 178.982 83.5069 182.58C78.837 187.094 57.5292 194.561 48.7079 193.277C41.4292 192.218 37.2778 186.857 36.3866 184.777C34.925 181.371 43.4157 147.181 46.1509 143.765C50.5843 138.227 69.9444 132.533 74.8477 133.006V133.009Z" fill="black"/>
<path d="M51.6276 170.648C53.5234 157.267 53.303 146.186 53.303 146.186C53.6498 143.792 51.3975 138.872 51.3975 138.872C48.5553 140.282 46.222 141.805 45.01 143.318C42.2748 146.734 33.7905 180.911 35.2456 184.33C35.291 184.437 35.3493 184.557 35.4109 184.68C35.4174 184.696 35.4239 184.709 35.4336 184.722C35.4952 184.842 35.5697 184.972 35.6475 185.104C35.6604 185.124 35.6702 185.143 35.6831 185.163C35.7641 185.299 35.8549 185.442 35.9521 185.591C35.9651 185.607 35.9748 185.626 35.9878 185.642C36.0915 185.798 36.2049 185.96 36.328 186.125C36.328 186.125 36.328 186.129 36.3313 186.132C36.5905 186.482 36.8919 186.854 37.229 187.234C37.229 187.234 37.2322 187.237 37.2354 187.24C37.404 187.428 37.5822 187.619 37.7702 187.811C37.7734 187.814 37.7766 187.817 37.7799 187.82C39.4975 189.57 42.0253 191.398 45.3405 192.348C49.9651 192.085 50.0461 181.779 51.6243 170.641L51.6276 170.648Z" fill="#9E9E9E"/>
<path opacity="0.3" d="M40.1582 163.346C40.3299 163.285 42.9096 161.784 43.2012 161.677C43.7165 161.49 50.1818 167.073 50.736 167.958C51.1216 168.574 48.5938 183.073 48.2471 183.659C48.1207 183.87 45.3304 185.118 45.204 185.328C44.854 185.915 38.0031 180.205 37.679 178.98C37.3549 177.755 39.4031 163.625 40.1582 163.346Z" fill="black"/>
<path d="M47.6929 169.627C48.0785 170.243 45.5508 184.742 45.204 185.328C44.854 185.915 38.0031 180.205 37.679 178.98C37.3549 177.755 39.4031 163.625 40.1582 163.346C40.6735 163.158 47.1387 168.742 47.6929 169.627Z" fill="#828282"/>
<path opacity="0.3" d="M50.7744 168.182C50.2916 167.78 48.6291 168.425 47.8837 168.924C47.1383 169.423 46.0819 172.061 44.2865 172.281C42.4911 172.505 40.3069 169.906 39.9666 168.367C39.6263 166.827 39.3832 163.651 40.3619 162.643C41.3374 161.636 42.8832 161.211 44.0402 162.024C45.1939 162.838 50.7907 166.801 50.7777 168.179L50.7744 168.182Z" fill="black"/>
<path d="M42.7381 168.224C43.1011 168.48 43.3052 169.053 43.2015 169.497C43.0946 169.945 42.7122 170.107 42.3492 169.864C41.983 169.617 41.7789 169.047 41.8858 168.59C41.996 168.13 42.3752 167.968 42.7381 168.224Z" fill="#2B454E"/>
<path d="M53.2353 151.812C53.2353 151.812 53.4395 150.25 49.4728 145.768C46.3358 142.226 44.8321 143.28 43.3543 147C42.5312 149.071 42.0386 151.53 39.4687 160.183C38.7039 160.08 38.2826 157.639 39.6275 152.467C41.708 144.462 44.1062 140.353 48.5719 138.308C59.9696 133.084 67.6113 131.269 74.6372 132.663C81.1932 133.962 85.3997 136.403 85.0659 142.336C85.0659 142.336 74.1446 152.94 53.2353 151.812Z" fill="#AFAFAF"/>
<path d="M57.2242 306.478C57.7687 304.416 55.8145 303.023 54.9104 301.791C53.5136 299.886 53.2122 297.011 53.3029 294.814C53.4196 292.072 53.1668 290.102 54.9071 287.681C56.9682 284.82 59.8136 281.482 69.2279 273.409L58.3942 261.334C55.9117 265.051 49.5178 278.166 49.5178 278.166L49.0965 278.977C47.933 280.315 47.1812 281.226 45.4344 282.344C45.4247 282.35 44.809 282.645 44.7992 282.652C43.7006 283.365 40.9492 284.065 40.9039 286.696C40.8585 289.327 41.8307 290.015 42.9066 292.212C43.5937 293.612 44.1057 294.328 44.0668 296.956C44.0377 299.072 43.8692 299.98 43.7817 301.872C43.7071 303.467 45.0553 305.836 47.9881 306.983C52.2627 308.655 56.6863 308.509 57.221 306.481L57.2242 306.478Z" fill="#FFDDC3"/>
<path d="M39.3612 286.708C38.577 287.642 36.4932 290.821 35.9131 292.354L38.7487 296.781L41.4061 292.519C41.4061 292.519 39.6885 289.729 39.3612 286.705V286.708Z" fill="#1A2E35"/>
<path d="M38.7523 296.784L42.8583 296.648C42.8583 296.648 43.2634 295.225 42.5439 294.023C41.8277 292.82 41.4064 292.525 41.4064 292.525L38.749 296.787L38.7523 296.784Z" fill="black"/>
<path d="M40.2199 285.766C40.2199 285.766 39.6042 286.197 39.3968 286.615C39.1894 287.036 39.3158 289.752 40.1227 291.093C40.9296 292.435 42.2681 293.877 42.5468 295.757C42.8255 297.636 41.957 300.466 42.5857 303.1C43.2176 305.735 45.5509 308.807 50.8398 309.711C54.6218 310.356 56.0801 309.669 57.3764 308.898C57.8949 307.223 57.8658 306.779 55.8403 305.275C53.8148 303.768 40.2199 285.769 40.2199 285.769V285.766Z" fill="#1A2E35"/>
<path d="M47.5308 279.145C45.7549 281.174 45.1165 281.955 43.5155 282.833C41.5808 283.896 41.1692 284.34 40.2165 285.766C39.7563 288.011 40.1646 288.964 42.0766 291.93C43.3859 293.958 43.791 295.277 43.6581 297.993C43.4961 301.282 42.3067 302.792 46.0725 306.302C49.0053 309.037 55.6132 309.459 57.4734 307.705C59.1651 303.272 55.2178 303.447 54.4563 298.657C54.035 296.003 53.9799 293.378 54.8711 290.776C55.179 289.878 55.8368 288.177 56.3294 287.376C57.0035 286.284 57.5998 285.49 57.1072 284.884L56.0961 286.074C55.1271 286.255 52.8165 285.649 51.3257 284.317C47.7317 281.105 49.0961 278.973 49.0961 278.973L49.5174 278.163C49.1577 277.683 48.5387 277.991 47.5308 279.142V279.145Z" fill="#2B454E"/>
<path d="M92.2956 175.862C93.0053 182.383 95.7502 190.63 96.8974 206.047C97.9734 220.504 98.4141 228.041 97.1664 235.161C96.7224 237.699 95.3451 240.641 92.7849 244.326C84.7641 255.87 69.1405 273.921 69.1405 273.921C69.1405 273.921 65.7442 273.736 61.7483 270.197C57.8854 266.778 57.8789 261.936 57.8789 261.936C57.8789 261.936 58.3715 259.25 65.0312 248.588C71.6909 237.926 72.8997 226.162 72.8997 226.162L70.4141 179.767C80.1331 181.025 87.6192 179.463 92.2923 175.862H92.2956Z" fill="#1A2E35"/>
<path d="M61.7523 270.198C57.8893 266.779 57.8828 261.937 57.8828 261.937C57.8828 261.937 58.3754 259.25 65.0351 248.588C71.6948 237.926 72.9036 226.162 72.9036 226.162L70.9981 190.644C78.6689 189.714 89.3115 190.213 89.3115 190.213C89.3374 195.285 88.0314 201.52 80.8337 205.026C80.8337 205.026 81.2745 229.973 81.1837 237.265C81.1157 242.826 79.0578 256.917 78.0824 263.292C73.1143 269.326 69.1379 273.918 69.1379 273.918C69.1379 273.918 65.7416 273.733 61.7458 270.194L61.7523 270.198Z" fill="black"/>
<path d="M73.7491 297.316L73.8333 296.198L75.687 273.506L60.0537 276.918L62.8634 295.274L62.9477 296.227C62.9477 296.227 62.9509 300.864 69.8634 301.389C73.4023 301.658 73.7458 297.316 73.7458 297.316H73.7491Z" fill="#FFDDC3"/>
<path d="M64.6592 317.735L70.1069 315.879L70.4666 310.612L64.9184 312.534L64.6592 317.735Z" fill="black"/>
<path d="M59.8371 305.709C59.5486 307.64 60.8352 315.146 60.8352 315.146L64.656 317.735L64.9153 312.537C64.9153 312.537 65.9685 313.535 67.0185 316.329C68.0135 318.97 68.8431 320.937 71.3514 322.347C73.8597 323.757 76.5852 324.191 80.3542 323.825C83.0375 323.565 84.7195 322.447 85.1894 321.767C85.4065 321.449 85.3838 320.671 85.3838 320.671L59.8338 305.709H59.8371Z" fill="#1A2E35"/>
<path d="M73.8337 296.201C74.5726 296.169 74.4915 296.894 75.2466 301.289C75.8105 304.575 78.1763 311.523 80.3087 313.97C82.1818 316.115 85.8179 316.88 85.3869 320.672C83.6661 322.879 77.8554 323.543 74.5175 322.509C70.2462 321.187 68.9499 318.99 67.3652 314.722C66.0948 311.3 64.886 310.894 63.0841 309.475C61.8915 308.538 60.2712 307.187 59.8369 305.713C59.8596 302.507 61.104 300.459 61.5804 298.858C62.0277 297.355 61.8656 295.475 62.867 295.277L62.9513 296.23C62.9513 296.23 63.7874 298.832 68.6031 299.108C73.4156 299.387 73.7527 297.319 73.7527 297.319L73.8369 296.201H73.8337Z" fill="#2B454E"/>
<path d="M92.2963 175.862C92.2963 175.862 93.2459 184.282 90.3357 191.82C87.8111 198.366 83.2709 201.937 78.5783 203.318C78.5783 203.318 79.0838 233.159 79.3528 237.316C79.6218 241.474 78.1375 256.463 76.9223 266.318C75.707 276.173 75.3278 279.55 75.3278 279.55C75.3278 279.55 73.2051 281.702 67.4723 281.601C61.7394 281.501 60.0056 278.989 60.0056 278.989C60.0056 278.989 56.7811 267.426 56.9398 258.449C57.0306 253.303 58.2135 250.791 57.4422 245.661C56.6709 240.531 50.4616 217.58 49.6514 206.779C48.8412 195.978 50.9445 186.592 58.7385 175.862C66.526 181.534 84.8523 180.866 92.2931 175.862H92.2963Z" fill="#1A2E35"/>
<path d="M61.9501 177.645C57.7339 183.215 51.5376 194.798 55.0603 211.854C56.0617 216.702 57.0663 221.385 58.0353 225.912C60.3103 236.516 62.1057 244.89 62.2774 248.069C62.3714 249.826 62.1251 251.485 61.8399 253.403C61.3895 256.411 60.8321 260.154 61.4024 265.968C61.9339 271.406 62.783 277.129 63.402 281.005C63.1622 280.93 62.9353 280.856 62.7247 280.775C62.1089 276.899 61.2923 271.325 60.7705 266.029C60.1936 260.134 60.7575 256.353 61.2112 253.309C61.4932 251.427 61.7362 249.796 61.6455 248.105C61.477 244.978 59.6848 236.623 57.4163 226.048C56.4441 221.518 55.4395 216.835 54.4381 211.984C50.8927 194.804 57.0761 183.086 61.3538 177.379C61.5483 177.47 61.746 177.557 61.9469 177.645H61.9501Z" fill="black"/>
<path d="M81.5332 136.153C85.9309 135.982 89.58 137.401 93.0216 141.578C96.7096 146.054 101.295 151.359 106.756 157.416L118.513 150.461L124.269 158.304C124.269 158.304 112.262 168.055 107.66 170.201C104.218 171.808 103.201 170.327 100.252 167.861C96.9689 165.119 87.211 156.055 87.211 156.055L81.5364 136.157L81.5332 136.153Z" fill="#FFDDC3"/>
<path d="M106.756 157.416C104.157 158.774 102.348 160.401 101.934 162.566C101.817 159.186 105.123 157.186 106.043 156.609L106.756 157.416Z" fill="#E4804E"/>
<path opacity="0.3" d="M116.99 140.865C116.819 140.836 116.663 140.765 116.559 140.658C116.459 140.554 116.427 140.434 116.456 140.324L109.896 165.323C109.867 165.433 109.896 165.557 110 165.657C110.104 165.764 110.259 165.835 110.431 165.864L116.99 140.865Z" fill="black"/>
<path d="M131.065 134.744L124.846 158.444C124.752 158.803 124.422 159.202 124.104 159.338L110.934 164.987L110.425 165.204L116.884 140.587C116.864 140.574 116.845 140.561 116.832 140.545C116.79 140.5 116.777 140.445 116.79 140.393C116.809 140.321 116.877 140.25 116.984 140.205L130.666 134.339C130.666 134.339 130.689 134.329 130.702 134.326C130.835 134.277 130.942 134.287 131.01 134.345C131.01 134.345 131.016 134.352 131.02 134.355C131.02 134.355 131.023 134.362 131.026 134.362C131.094 134.433 131.117 134.569 131.068 134.744H131.065Z" fill="#D268CC"/>
<path d="M131.065 134.744L124.846 158.444C124.752 158.803 124.422 159.202 124.104 159.338L110.934 164.987L110.425 165.204L116.884 140.587C116.864 140.574 116.845 140.561 116.832 140.545C116.79 140.5 116.777 140.445 116.79 140.393C116.809 140.321 116.877 140.25 116.984 140.205L130.666 134.339C130.666 134.339 130.689 134.329 130.702 134.326C130.835 134.277 130.942 134.287 131.01 134.345C131.01 134.345 131.016 134.352 131.02 134.355C131.02 134.355 131.023 134.362 131.026 134.362C131.094 134.433 131.117 134.569 131.068 134.744H131.065Z" fill="#124A53"/>
<path d="M116.511 140.61L131.026 134.653L131.506 135.146L116.751 140.853L116.511 140.61Z" fill="#F5F5F5"/>
<path d="M116.459 140.325C116.43 140.435 116.459 140.555 116.563 140.658C116.77 140.872 117.198 140.947 117.516 140.824L131.606 135.295C131.61 135.295 131.613 135.295 131.616 135.292C131.759 135.237 131.875 135.25 131.95 135.311C131.95 135.314 131.956 135.318 131.96 135.321C132.037 135.395 132.06 135.535 132.012 135.716L125.793 159.419C125.699 159.779 125.365 160.171 125.047 160.294L110.956 165.823C110.639 165.946 110.211 165.875 110.004 165.657C109.903 165.554 109.871 165.434 109.9 165.324L116.459 140.325Z" fill="#124A53"/>
<path d="M117.515 140.82C117.198 140.943 116.77 140.872 116.563 140.655C116.355 140.441 116.439 140.156 116.757 140.02L130.478 134.141C130.637 134.073 130.76 134.086 130.835 134.161C130.845 134.17 130.874 134.199 130.906 134.235C130.945 134.274 130.987 134.319 131.01 134.342C130.942 134.284 130.835 134.274 130.702 134.323C130.692 134.326 116.987 140.201 116.987 140.201C116.877 140.247 116.809 140.318 116.793 140.389C116.78 140.441 116.793 140.496 116.835 140.542C116.851 140.558 116.867 140.571 116.887 140.584C117.007 140.655 117.204 140.665 117.366 140.6C117.366 140.6 131.431 135.087 131.438 135.084C131.587 135.032 131.703 135.049 131.775 135.12C131.791 135.139 131.817 135.165 131.846 135.194C131.888 135.236 131.93 135.282 131.953 135.305C131.878 135.243 131.765 135.23 131.619 135.285C131.616 135.285 117.519 140.817 117.519 140.817L117.515 140.82Z" fill="#124A53"/>
<path d="M116.676 151.505C116.164 153.449 116.265 155.041 116.955 155.987C117.645 156.93 118.844 157.115 120.329 156.506C121.813 155.896 123.41 154.564 124.82 152.759C126.233 150.954 127.29 148.887 127.802 146.942C128.314 144.998 128.213 143.406 127.523 142.46C127.513 142.447 127.504 142.434 127.494 142.421C127.474 142.395 127.455 142.373 127.435 142.347C126.735 141.501 125.569 141.358 124.149 141.938C122.668 142.544 121.08 143.867 119.674 145.662C119.667 145.668 119.661 145.675 119.658 145.685C119.625 145.727 119.593 145.769 119.56 145.811C118.199 147.587 117.175 149.606 116.676 151.502V151.505ZM123.329 143.018C123.459 142.946 123.585 142.881 123.712 142.823C123.728 142.817 123.741 142.81 123.757 142.804L122.882 146.145C122.655 146.232 122.432 146.307 122.221 146.352C122.185 146.362 122.153 146.368 122.121 146.375C121.758 146.446 121.424 146.453 121.119 146.401C121.314 145.986 121.515 145.587 121.725 145.212C122.276 144.226 122.827 143.481 123.333 143.021L123.329 143.018ZM121.534 145.056C121.307 145.461 121.087 145.895 120.876 146.343C120.837 146.33 120.795 146.323 120.756 146.31C120.73 146.3 120.704 146.291 120.679 146.281C120.455 146.187 120.257 146.054 120.082 145.882C120.854 144.926 121.683 144.126 122.513 143.533C122.189 143.961 121.858 144.473 121.531 145.059L121.534 145.056ZM123.145 146.44C123.394 146.323 123.644 146.193 123.897 146.035C123.932 146.012 123.971 145.986 124.017 145.96C124.441 145.688 124.866 145.361 125.287 144.991C125.248 145.843 125.089 146.855 124.814 147.956L122.497 148.906L123.145 146.44ZM124.681 148.459C124.376 149.564 123.984 150.659 123.534 151.677C123.226 151.606 122.892 151.593 122.526 151.644C122.487 151.651 122.451 151.654 122.422 151.661C122.202 151.699 121.968 151.768 121.729 151.849L122.37 149.408L124.684 148.459H124.681ZM121.343 151.991C121.097 152.095 120.847 152.218 120.598 152.364C120.552 152.39 120.513 152.412 120.478 152.435C120.053 152.688 119.622 152.999 119.194 153.356C119.24 152.532 119.398 151.567 119.658 150.52L121.981 149.567L121.346 151.991H121.343ZM119.787 150.014C120.079 148.945 120.455 147.885 120.886 146.897C121.207 146.945 121.557 146.939 121.939 146.861C121.968 146.855 122.004 146.848 122.046 146.838C122.273 146.787 122.513 146.709 122.753 146.615L122.111 149.065L119.787 150.018V150.014ZM124.535 142.518C124.892 142.625 125.138 143.043 125.242 143.76C125.277 144.006 125.293 144.281 125.293 144.576C124.888 144.936 124.477 145.254 124.072 145.516C124.036 145.539 123.997 145.565 123.955 145.591C123.722 145.737 123.492 145.856 123.265 145.967L124.136 142.642C124.136 142.642 124.162 142.632 124.172 142.629C124.295 142.587 124.415 142.551 124.532 142.518H124.535ZM125.238 142.412C125.88 142.386 126.411 142.587 126.8 143.008C126.505 143.364 126.201 143.705 125.89 144.019C125.851 144.058 125.812 144.097 125.776 144.132C125.724 144.181 125.673 144.23 125.624 144.278C125.624 143.961 125.604 143.666 125.566 143.403C125.504 142.979 125.394 142.648 125.242 142.415L125.238 142.412ZM126.975 143.228C127.539 144.035 127.64 145.348 127.257 146.952L125.112 147.833C125.404 146.667 125.572 145.597 125.611 144.693C125.685 144.622 125.76 144.557 125.835 144.482C125.873 144.443 125.912 144.405 125.954 144.362C126.301 144.012 126.645 143.63 126.975 143.228ZM127.124 147.454C126.638 149.133 125.724 150.85 124.593 152.312C124.418 152.114 124.217 151.952 123.991 151.839C123.965 151.826 123.935 151.813 123.91 151.8C123.861 151.777 123.806 151.764 123.757 151.745C124.24 150.666 124.655 149.502 124.976 148.332L127.121 147.451L127.124 147.454ZM124.247 152.746C123.534 153.602 122.756 154.347 121.955 154.918C122.279 154.49 122.61 153.978 122.941 153.391C123.145 153.028 123.339 152.646 123.527 152.25C123.563 152.263 123.598 152.273 123.634 152.289C123.66 152.302 123.686 152.312 123.709 152.325C123.913 152.429 124.091 152.571 124.247 152.746ZM121.142 155.433C121.012 155.504 120.886 155.569 120.76 155.627C120.747 155.634 120.734 155.637 120.721 155.643L121.592 152.318C121.813 152.244 122.027 152.182 122.231 152.15C122.267 152.143 122.299 152.14 122.331 152.134C122.681 152.085 123.005 152.101 123.297 152.176C123.122 152.545 122.941 152.902 122.749 153.239C122.198 154.224 121.648 154.969 121.142 155.433ZM119.933 155.929C119.577 155.822 119.33 155.404 119.227 154.687C119.188 154.415 119.168 154.104 119.172 153.77C119.583 153.424 119.995 153.125 120.4 152.882C120.435 152.86 120.474 152.837 120.513 152.814C120.75 152.678 120.983 152.565 121.213 152.464L120.338 155.806C120.338 155.806 120.309 155.818 120.293 155.822C120.17 155.864 120.05 155.899 119.933 155.932V155.929ZM119.227 156.036C118.523 156.068 117.966 155.828 117.584 155.365C117.901 154.992 118.229 154.639 118.562 154.315C118.604 154.276 118.643 154.237 118.676 154.205C118.731 154.153 118.786 154.104 118.841 154.056C118.838 154.418 118.857 154.752 118.899 155.047C118.961 155.472 119.071 155.802 119.223 156.036H119.227ZM117.418 155.131C116.932 154.347 116.832 153.093 117.201 151.524L119.347 150.643C119.071 151.748 118.906 152.769 118.857 153.641C118.783 153.709 118.705 153.774 118.63 153.845C118.588 153.887 118.546 153.923 118.51 153.962C118.138 154.318 117.772 154.713 117.418 155.135V155.131ZM117.331 151.022C117.781 149.454 118.627 147.801 119.732 146.323C119.923 146.518 120.144 146.67 120.397 146.77C120.423 146.78 120.448 146.79 120.478 146.803C120.529 146.822 120.585 146.832 120.64 146.845C120.183 147.892 119.784 149.013 119.476 150.141L117.331 151.022Z" fill="white"/>
<path d="M131.197 147.111C132.16 145.763 132.069 145.584 131.547 144.897C131.026 144.21 129.856 143.083 128.096 143.138C126.913 143.177 125.717 143.154 125.108 143.471C124.499 143.789 125.021 145.069 126.563 145.413C128.994 145.954 128.981 146.615 128.981 146.615C128.981 146.615 126.741 146.119 125.844 146.071C124.946 146.022 123.306 146.453 122.282 146.615C121.258 146.777 121.057 148.099 122.794 148.553C122.794 148.553 121.501 148.764 120.918 148.858C119.605 149.071 119.158 149.771 120.192 150.582C120.438 150.773 120.778 150.996 121.381 151.026C121.381 151.026 119.981 151.026 119.952 151.492C119.871 152.828 120.736 153.174 123.569 153.991C126.268 154.769 126.826 156.221 126.291 157.222C126.291 157.222 127.377 156.587 128.342 155.916C129.049 155.427 129.648 154.872 129.327 153.767C129.327 153.767 130.87 153.793 130.961 152.84C131.055 151.888 130.585 150.799 130.585 150.799C130.585 150.799 131.489 150.352 131.431 149.214C131.372 148.08 130.867 147.539 130.867 147.539L131.197 147.104V147.111Z" fill="#FFDDC3"/>
<path d="M122.791 148.553C123.358 148.466 123.89 148.342 124.496 148.365C125.118 148.42 125.633 148.673 126.148 148.887C127.173 149.347 128.18 149.84 129.127 150.472C128.022 150.199 126.981 149.788 125.954 149.344C125.442 149.12 124.94 148.861 124.447 148.751C123.938 148.666 123.345 148.66 122.791 148.556V148.553Z" fill="#E4804E"/>
<path d="M121.381 151.025C121.968 150.85 122.619 150.834 123.225 150.967C123.838 151.084 124.418 151.294 124.982 151.518C126.106 151.988 127.189 152.532 128.196 153.229C127.02 152.889 125.905 152.428 124.794 151.978C123.679 151.531 122.609 151.048 121.378 151.025H121.381Z" fill="#E4804E"/>
<path d="M52.8268 160.122C52.8268 160.122 56.1356 158.981 57.7884 152.273C58.5402 149.23 57.9472 145.075 57.1823 140.269L66.5286 137.45C66.5286 137.45 69.562 136.986 76.1893 136.565L81.53 136.153C81.53 136.153 90.0078 143.439 93.7509 149.719C95.2643 152.257 97.1861 157.439 93.3555 163.784C93.1449 168.399 92.2893 175.869 92.2893 175.869C92.2893 175.869 88.6597 181.436 76.5458 181.388C59.1754 181.32 57.3217 175.742 57.3217 175.742C57.5648 170.794 54.0712 165.048 52.8203 160.119L52.8268 160.122Z" fill="#D268CC"/>
<path d="M52.8268 160.122C52.8268 160.122 56.1356 158.981 57.7884 152.273C58.5402 149.23 57.9472 145.075 57.1823 140.269L66.5286 137.45C66.5286 137.45 69.562 136.986 76.1893 136.565L81.53 136.153C81.53 136.153 90.0078 143.439 93.7509 149.719C95.2643 152.257 97.1861 157.439 93.3555 163.784C93.1449 168.399 92.2893 175.869 92.2893 175.869C92.2893 175.869 88.6597 181.436 76.5458 181.388C59.1754 181.32 57.3217 175.742 57.3217 175.742C57.5648 170.794 54.0712 165.048 52.8203 160.119L52.8268 160.122Z" fill="#EFA12F"/>
<path d="M80.9371 164.86C80.9371 164.86 77.9685 168.755 71.351 167.816C64.7366 166.876 63.3172 161.934 63.3172 161.934C63.3172 161.934 63.0806 168.341 70.988 169.436C78.7755 170.515 80.9338 164.86 80.9338 164.86H80.9371Z" fill="#F1B251"/>
<path d="M62.1147 103.163C63.0739 102.1 64.5582 101.332 65.9679 101.082C67.3776 100.833 68.2267 100.904 69.5846 100.45C70.8744 100.019 72.0151 99.2124 73.3017 98.7684C76.1374 97.7864 79.4137 98.7263 81.6661 100.71C82.661 101.585 83.5749 102.696 84.8679 102.978C85.5063 103.117 86.1739 103.033 86.8253 103.079C88.8929 103.218 90.7142 104.679 91.6929 106.507C92.461 107.94 92.7721 109.57 92.8336 111.184C92.8952 112.791 92.2406 114.246 92.2341 115.841C92.2276 117.011 92.8887 118.086 93.5434 119.013C94.4249 120.261 95.154 121.223 95.5267 122.756C95.8151 123.939 95.9577 125.19 95.6434 126.363C95.329 127.536 94.4832 128.622 93.3165 128.962C93.8188 127.864 93.7249 126.509 93.0702 125.492C93.2679 126.577 92.892 127.711 92.2438 128.606C91.5957 129.5 90.698 130.181 89.7647 130.771C87.6549 132.099 85.1531 133.01 82.6318 132.848C79.9906 132.679 77.3721 131.6 74.7082 132.116C73.9693 132.258 73.2596 132.524 72.5401 132.748C71.3086 133.13 70.0383 133.383 68.7549 133.503C66.7716 133.691 64.2082 133.532 62.4614 132.498C61.7582 132.083 61.1133 131.471 60.9188 130.68C60.7082 131.396 60.8086 132.193 61.1878 132.835C58.8156 132.508 56.5147 131.273 55.2119 129.267C53.9091 127.261 53.7665 124.464 55.1373 122.5C54.6674 122.841 54.1911 123.187 53.8346 123.644C53.4781 124.101 53.2512 124.691 53.3549 125.261C52.4864 123.845 52.4475 121.956 53.2577 120.504C53.7082 119.7 54.3823 119.046 55.0304 118.394C55.9281 117.49 56.8387 116.486 57.0688 115.235C57.179 114.635 57.1239 114.023 57.085 113.413C57.0235 112.477 57.004 111.521 57.2568 110.617C57.4998 109.751 57.9827 109.1 58.6989 108.578C58.8901 108.439 60.9934 107.343 61.0193 107.528C60.7471 105.571 61.5022 103.847 62.1147 103.166V103.163Z" fill="#1A2E35"/>
<path d="M61.1292 118.641C62.8598 118.045 64.2857 118.728 65.1445 120.55C65.8899 122.134 67.588 121.639 67.2672 119.198C71.2274 115.663 66.8329 113.187 70.1158 109.752C72.1639 107.609 76.3607 108.335 78.007 109.768C78.7945 108.397 80.901 107.253 82.8486 108.008C84.6051 108.689 85.6973 109.784 86.4686 112.27C87.2723 114.859 86.3389 115.313 86.7148 117.134C86.8607 117.84 87.2852 119.253 87.4894 121.029C88.3223 128.308 85.7653 131.183 83.85 132.514C82.5343 133.432 80.6449 134.29 77.8514 134.229L77.8676 137.927C77.8676 137.927 79.9903 141.187 80.0357 148.848C80.0357 148.848 77.2033 147.458 71.9922 144.534C66.6482 141.537 65.0408 138.623 65.0408 138.623V126.318C64.6162 127.271 62.6135 128.266 60.6852 126.584C58.2482 124.455 58.0732 119.694 61.126 118.638L61.1292 118.641Z" fill="#FFDDC4"/>
<path d="M78.0078 109.771C78.4712 107.668 81.4268 105.895 84.6319 107.182C87.5356 108.348 88.2972 110.542 88.2453 115.41C88.2097 119.023 88.5175 119.403 89.3828 120.012C87.4578 120.239 86.5212 118.657 86.4078 116.583C86.2944 114.509 86.612 110.309 83.4231 108.935C80.9925 107.888 78.8407 109.019 78.0078 109.768V109.771Z" fill="#1A2E35"/>
<path d="M85.4193 115.105L82.7393 113.912C83.0439 113.154 83.8897 112.807 84.6286 113.138C85.3675 113.468 85.7207 114.35 85.4161 115.108L85.4193 115.105Z" fill="#1A2E35"/>
<path d="M74.2121 114.113L71.6681 115.574C71.2338 114.881 71.4542 113.993 72.1574 113.591C72.8607 113.189 73.781 113.423 74.2121 114.116V114.113Z" fill="#1A2E35"/>
<path d="M76.0406 125.21L80.2114 126.241C79.9683 127.414 78.7207 128.127 77.4114 127.751C76.2707 127.423 75.8007 126.38 76.0438 125.21H76.0406Z" fill="#C76668"/>
<path d="M78.5935 127.792C78.3861 126.665 77.362 125.851 76.1954 125.948C76.1241 125.955 76.0593 125.974 75.9912 125.987C76.0528 126.82 76.5324 127.501 77.4107 127.753C77.8222 127.87 78.2241 127.87 78.5935 127.792Z" fill="#FFC5C4"/>
<path d="M75.019 118.158C75.019 118.835 74.4681 119.386 73.7907 119.386C73.1134 119.386 72.5625 118.835 72.5625 118.158C72.5625 117.481 73.1134 116.93 73.7907 116.93C74.4681 116.93 75.019 117.481 75.019 118.158Z" fill="#1A2E35"/>
<path d="M84.8452 117.908C84.8452 118.585 84.2942 119.136 83.6169 119.136C82.9396 119.136 82.3887 118.585 82.3887 117.908C82.3887 117.231 82.9396 116.68 83.6169 116.68C84.2942 116.68 84.8452 117.231 84.8452 117.908Z" fill="#1A2E35"/>
<path d="M77.8552 134.232C75.1395 133.979 70.5312 133.678 68.3955 130.554C68.3955 130.554 68.6256 132.378 71.3478 133.885C73.2631 134.942 77.8487 135.515 77.8487 135.515L77.8552 134.232Z" fill="#E4804E"/>
<path d="M64.6106 137.988C64.6106 137.988 68.3504 142.732 69.0893 153.394C70.3499 171.591 55.6629 180.315 55.6629 180.315C55.3291 176.549 55.4522 174.9 55.436 171.396C55.436 171.396 62.2059 164.231 61.4768 156.897C60.4981 147.097 58.6703 142.463 57.1536 140.182C57.1536 140.182 61.2434 138.098 64.6106 137.984V137.988Z" fill="#1A2E35"/>
<path d="M81.4753 136.316C80.5517 135.205 78.7207 135.182 77.7744 135.253L77.8003 137.966C78.1536 138.03 78.6494 138.261 79.155 138.957C79.8226 139.878 81.8091 143.05 81.8091 143.05L84.5346 142.02C84.5346 142.02 82.7554 137.855 81.4786 136.316H81.4753Z" fill="#1A2E35"/>
<path d="M80.5517 135.146C79.8193 134.644 78.523 134.401 77.7646 134.297L77.7711 135.363C78.6072 135.454 80.1045 135.755 80.8628 136.734C81.6309 137.726 84.5281 142.02 84.5281 142.02L85.2119 141.355C84.0096 139.284 81.7151 135.943 80.5517 135.146Z" fill="#375A64"/>
<path d="M86.7935 142.324C86.7579 142.328 86.7255 142.334 86.6898 142.341C86.6639 142.347 86.6347 142.354 86.6088 142.363C86.5764 142.373 86.544 142.383 86.5116 142.393C86.4857 142.402 86.4597 142.412 86.4338 142.425C86.4014 142.438 86.3722 142.454 86.3398 142.47C86.3139 142.483 86.288 142.496 86.2653 142.512C86.2361 142.529 86.207 142.548 86.1778 142.571C86.1551 142.587 86.1292 142.603 86.1065 142.623C86.0773 142.645 86.0514 142.668 86.0222 142.694C85.9996 142.713 85.9801 142.733 85.9574 142.752C85.9542 142.756 85.9477 142.762 85.9445 142.768C85.9218 142.791 85.8991 142.817 85.8764 142.84C85.8699 142.846 85.8634 142.856 85.857 142.862C85.8408 142.882 85.8213 142.905 85.8051 142.924C85.7889 142.943 85.776 142.963 85.763 142.982C85.7533 142.995 85.7435 143.008 85.7371 143.018C85.7273 143.031 85.7209 143.041 85.7111 143.054C85.6949 143.08 85.6787 143.106 85.6625 143.131C85.6496 143.154 85.6366 143.177 85.6204 143.199C85.5977 143.242 85.5718 143.284 85.5491 143.329C85.5329 143.358 85.5199 143.391 85.5037 143.423C85.4972 143.439 85.4875 143.456 85.481 143.475C85.4746 143.494 85.4648 143.514 85.4584 143.53C85.4389 143.575 85.4227 143.624 85.4033 143.676C85.3935 143.699 85.3871 143.721 85.3773 143.744C85.3773 143.754 85.3709 143.76 85.3676 143.77C85.3417 143.851 85.319 143.932 85.2963 144.019C85.2153 144.353 85.1732 144.71 85.1667 145.079C85.144 146.554 85.7014 148.216 86.6088 149.312C86.719 149.441 86.8292 149.568 86.9491 149.681C86.9653 149.697 86.9815 149.71 86.9977 149.726C87.0269 149.752 87.0528 149.778 87.082 149.804C87.1046 149.824 87.1273 149.84 87.1468 149.859C87.1695 149.879 87.1922 149.898 87.2181 149.918C87.244 149.937 87.2667 149.953 87.2894 149.973C87.3121 149.989 87.3315 150.005 87.3542 150.018C87.3801 150.034 87.406 150.054 87.4287 150.07C87.4482 150.083 87.4709 150.096 87.4903 150.109C87.5162 150.125 87.5389 150.141 87.5648 150.154C87.5875 150.167 87.6102 150.18 87.6329 150.19C87.6556 150.203 87.6783 150.216 87.7009 150.225C87.7334 150.242 87.7625 150.255 87.7949 150.268C87.8079 150.274 87.8241 150.28 87.8371 150.287C87.85 150.293 87.863 150.297 87.8727 150.3C88.0996 150.235 88.3297 150.167 88.5371 150.109C88.2324 149.989 87.9181 149.781 87.6102 149.487C86.2491 148.187 85.507 145.649 85.9542 143.822C86.1357 143.083 86.4824 142.571 86.9232 142.312C86.9037 142.312 86.8843 142.312 86.8648 142.312C86.8357 142.312 86.8097 142.318 86.7838 142.321L86.7935 142.324Z" fill="#1A2E35"/>
<path d="M87.4577 141.832C87.3605 141.842 87.2665 141.858 87.1758 141.887C87.0623 141.92 86.6216 142.049 86.5146 142.082C86.7901 142.001 87.0915 141.991 87.4059 142.059L87.4609 141.832H87.4577Z" fill="#2B454E"/>
<path d="M87.8502 150.287C87.8502 150.287 87.8211 150.274 87.8081 150.267C87.7757 150.254 87.7465 150.241 87.7141 150.225C87.6914 150.212 87.6687 150.203 87.6461 150.19C87.6299 150.183 87.6169 150.173 87.6007 150.167C87.5942 150.164 87.5877 150.157 87.578 150.154C87.5521 150.141 87.5294 150.125 87.5035 150.109C87.484 150.096 87.4613 150.083 87.4419 150.07C87.416 150.053 87.39 150.037 87.3674 150.018C87.3447 150.002 87.3252 149.989 87.3025 149.972C87.2799 149.953 87.2539 149.937 87.2312 149.917C87.2086 149.898 87.1826 149.878 87.16 149.859C87.1373 149.84 87.1178 149.823 87.0951 149.804C87.066 149.778 87.0368 149.752 87.0109 149.726C86.9947 149.71 86.9785 149.697 86.9623 149.681C86.8488 149.571 86.7386 149.451 86.6349 149.324C86.3498 148.984 86.097 148.589 85.8863 148.158C85.7146 147.804 85.5687 147.428 85.4586 147.046C85.2706 146.404 85.1734 145.74 85.1799 145.105C85.1799 145.095 85.1799 145.085 85.1799 145.076C85.1863 144.706 85.2252 144.35 85.3062 144.016C85.3257 143.935 85.3484 143.86 85.3711 143.783C85.3743 143.773 85.3775 143.76 85.3808 143.75C85.3808 143.744 85.3873 143.734 85.3873 143.728C85.4067 143.666 85.4294 143.604 85.4553 143.546C85.4618 143.533 85.465 143.52 85.4715 143.507C85.478 143.488 85.4877 143.468 85.4974 143.449C85.5104 143.423 85.5234 143.394 85.5331 143.368C85.5461 143.339 85.559 143.31 85.5752 143.284C85.5914 143.254 85.6076 143.225 85.6238 143.196C85.6303 143.186 85.6368 143.173 85.6433 143.164C85.6433 143.16 85.6465 143.154 85.6498 143.151C85.6627 143.128 85.6789 143.105 85.6919 143.083C85.7113 143.053 85.7275 143.031 85.747 143.005C85.7697 142.972 85.7956 142.937 85.8183 142.908C85.8377 142.885 85.8539 142.862 85.8734 142.843C85.8799 142.833 85.8896 142.827 85.8961 142.817C85.9155 142.794 85.9349 142.775 85.9576 142.752C85.9771 142.733 85.9965 142.716 86.016 142.697C86.0257 142.691 86.0322 142.681 86.0419 142.674C86.0581 142.661 86.0711 142.648 86.0873 142.635C86.097 142.626 86.1099 142.619 86.1197 142.61C86.1294 142.603 86.1391 142.593 86.1488 142.587C86.1683 142.571 86.1877 142.558 86.2104 142.545C86.2169 142.541 86.2234 142.535 86.2298 142.532C86.2558 142.516 86.2785 142.499 86.3044 142.486C86.3174 142.48 86.3271 142.477 86.34 142.47C86.3692 142.454 86.4016 142.441 86.434 142.425C86.4599 142.415 86.4859 142.402 86.5118 142.392C86.5442 142.379 86.5766 142.37 86.609 142.363C86.6349 142.357 86.6641 142.347 86.69 142.341C86.7224 142.334 86.7581 142.328 86.7937 142.324C86.8197 142.321 86.8488 142.315 86.8748 142.315C86.8942 142.315 86.9169 142.315 86.9363 142.311C86.9525 142.311 86.9687 142.311 86.9817 142.311C87.0076 142.311 87.0368 142.311 87.0627 142.311C87.1016 142.311 87.1405 142.318 87.1794 142.321C87.2053 142.321 87.2312 142.324 87.2572 142.331C87.2799 142.334 87.3025 142.341 87.3285 142.347L87.3998 142.062C87.0854 141.994 86.7873 142.003 86.5086 142.085C86.4664 142.097 86.4275 142.11 86.3854 142.127C86.3789 142.127 86.3724 142.133 86.366 142.136C86.2493 142.182 86.1391 142.24 86.0322 142.311C86.0192 142.318 86.0095 142.328 85.9965 142.334C85.9641 142.357 85.9349 142.379 85.9025 142.405C85.8928 142.412 85.8831 142.422 85.8734 142.428C85.8215 142.47 85.7729 142.519 85.7243 142.567C85.7081 142.587 85.6886 142.603 85.6724 142.622C85.6498 142.645 85.6303 142.671 85.6076 142.697C85.5849 142.723 85.5655 142.749 85.5461 142.778C85.5266 142.804 85.5072 142.83 85.4877 142.859C85.4586 142.901 85.4294 142.947 85.4002 142.995C85.3873 143.018 85.3743 143.041 85.3613 143.063C85.3386 143.102 85.316 143.144 85.2965 143.186C85.2868 143.206 85.2738 143.228 85.2641 143.248C85.2349 143.31 85.2058 143.374 85.1799 143.439C85.1734 143.455 85.1669 143.472 85.1604 143.488C85.1377 143.543 85.1183 143.601 85.0988 143.66C85.0924 143.679 85.0859 143.702 85.0794 143.721C85.0567 143.796 85.034 143.87 85.0146 143.951C84.8979 144.431 84.859 144.956 84.8882 145.497C84.9044 145.766 84.9336 146.041 84.9822 146.317C85.0049 146.453 85.034 146.589 85.0664 146.728C85.1604 147.137 85.2933 147.542 85.4521 147.924C85.7729 148.696 86.2169 149.389 86.7516 149.901C86.9817 150.122 87.2183 150.297 87.4581 150.433C87.5942 150.394 87.7368 150.352 87.8826 150.31C87.8697 150.306 87.8567 150.3 87.847 150.297L87.8502 150.287Z" fill="#375A64"/>
<path d="M88.5236 143.355C89.7648 144.541 90.4421 146.855 90.0337 148.524C89.6254 150.193 88.2902 150.581 87.049 149.395C85.8078 148.209 85.1305 145.895 85.5388 144.226C85.9472 142.557 87.2824 142.168 88.5236 143.355Z" fill="#D268CC"/>
<path d="M90.8179 149.622C91.4207 147.159 90.4193 143.74 88.5883 141.987C87.6711 141.112 86.7216 140.817 85.9244 141.05C85.7008 141.115 84.816 141.374 84.5924 141.439C83.7952 141.673 83.1535 142.431 82.8522 143.662C82.2494 146.125 83.2508 149.544 85.0818 151.298C85.9957 152.173 86.9485 152.468 87.7457 152.234C87.9693 152.169 88.854 151.91 89.0776 151.845C89.8748 151.612 90.5197 150.854 90.8179 149.622Z" fill="#F1B251"/>
<path d="M90.8179 149.622C91.4207 147.159 90.4193 143.74 88.5883 141.987C87.6711 141.112 86.7216 140.817 85.9244 141.05C85.7008 141.115 84.816 141.374 84.5924 141.439C83.7952 141.673 83.1535 142.431 82.8522 143.662C82.2494 146.125 83.2508 149.544 85.0818 151.298C85.9957 152.173 86.9485 152.468 87.7457 152.234C87.9693 152.169 88.854 151.91 89.0776 151.845C89.8748 151.612 90.5197 150.854 90.8179 149.622Z" fill="#EFA12F"/>
<path opacity="0.1" d="M87.2628 142.373C89.0971 144.126 90.0952 147.545 89.4924 150.008C88.8896 152.471 86.916 153.048 85.085 151.295C83.2508 149.541 82.2526 146.122 82.8554 143.659C83.4582 141.196 85.4318 140.62 87.2628 142.373Z" fill="#F1B251"/>
<path d="M89.4953 150.011C90.0981 147.548 89.0967 144.129 87.2657 142.376C86.3486 141.498 85.3958 141.206 84.5986 141.439C84.4884 141.472 84.0477 141.601 83.9375 141.631C83.1402 141.864 82.4953 142.622 82.1939 143.857C81.5912 146.32 82.5926 149.739 84.4236 151.492C85.3407 152.37 86.2935 152.662 87.0907 152.429C87.2009 152.396 87.6449 152.267 87.7551 152.234C88.5523 152.001 89.1972 151.243 89.4953 150.011Z" fill="#F0F0F0"/>
<path d="M86.6017 142.567C88.4359 144.32 89.4341 147.739 88.8313 150.202C88.2285 152.665 86.2549 153.242 84.4239 151.489C82.5896 149.736 81.5915 146.317 82.1943 143.854C82.797 141.391 84.7706 140.814 86.6017 142.567Z" fill="#E1E1E1"/>
<path d="M89.1165 150.274C89.7387 147.723 88.7017 144.168 86.8026 142.353C86.2452 141.819 85.6619 141.475 85.072 141.333C84.6378 141.226 84.2262 141.235 83.847 141.349C83.6267 141.414 82.7387 141.67 82.5119 141.738C81.6044 142.01 80.8947 142.872 80.5771 144.175C79.9549 146.725 80.9919 150.28 82.891 152.095C83.4484 152.63 84.0318 152.973 84.6216 153.116C85.0558 153.223 85.4739 153.213 85.8531 153.097C86.0702 153.032 86.9484 152.779 87.172 152.714C88.0827 152.445 88.7989 151.583 89.1165 150.277V150.274Z" fill="#375A64"/>
<path d="M84.6216 153.116C84.0318 152.974 83.4484 152.627 82.891 152.096C80.9919 150.281 79.9549 146.729 80.5771 144.175C81.0276 142.325 82.272 141.362 83.7466 141.722C84.3364 141.865 84.9197 142.211 85.4771 142.743C87.3762 144.558 88.4132 148.109 87.791 150.663C87.3406 152.514 86.0961 153.476 84.6216 153.116Z" fill="#2B454E"/>
<path d="M84.4014 150.264C84.1064 150.192 83.8148 150.021 83.5361 149.752C82.5865 148.844 82.0713 147.072 82.3791 145.798C82.606 144.874 83.225 144.395 83.9606 144.573C84.2555 144.644 84.5472 144.816 84.8259 145.085C85.7754 145.992 86.2939 147.765 85.9828 149.039C85.756 149.962 85.137 150.442 84.4014 150.264Z" fill="#1A2E35"/>
<path d="M64.9568 138.695V134.397C64.5582 134.754 64.0559 135.253 63.5374 135.917C62.5749 137.149 63.6476 140.075 64.5971 140.908C64.3022 140.085 64.5161 139.317 64.9536 138.695H64.9568Z" fill="#1A2E35"/>
<path d="M64.9572 134.715V133.594C64.2637 134.093 63.1586 134.945 62.2252 135.937C60.4039 137.868 60.3586 140.221 60.9127 142.117C61.4669 144.013 62.5169 145.75 62.5169 145.75L66.5225 144.116C66.5225 144.116 63.7257 139.771 63.5669 137.554C63.4762 136.309 64.2799 135.321 64.9572 134.715Z" fill="#375A64"/>
<path d="M73.2112 152.329C73.4284 149.428 71.6492 145.734 69.2446 144.094C68.5381 143.611 67.8381 143.342 67.1673 143.29C66.6747 143.255 66.2275 143.339 65.8321 143.53C65.602 143.64 64.6784 144.081 64.445 144.198C63.502 144.658 62.883 145.73 62.7728 147.212C62.5557 150.112 64.3349 153.806 66.7395 155.446C67.4492 155.929 68.146 156.198 68.8168 156.25C69.3126 156.286 69.7631 156.201 70.1585 156.004C70.3853 155.893 71.296 155.456 71.5293 155.346C72.4756 154.889 73.1011 153.813 73.2112 152.329Z" fill="#375A64"/>
<path d="M68.8168 156.253C68.146 156.205 67.446 155.932 66.7395 155.449C64.3349 153.81 62.5557 150.115 62.7728 147.215C62.9284 145.112 64.1145 143.831 65.79 143.958C66.4608 144.006 67.1608 144.279 67.8673 144.761C70.2719 146.401 72.0511 150.096 71.8339 152.996C71.6751 155.099 70.4923 156.38 68.8168 156.253Z" fill="#2B454E"/>
<path d="M71.5065 152.97C71.7171 150.167 70.0028 146.611 67.6792 145.03C66.5158 144.239 65.4236 144.09 64.594 144.492C64.4806 144.547 64.0236 144.767 63.907 144.823C63.0773 145.221 62.5102 146.167 62.4033 147.571C62.1926 150.374 63.907 153.929 66.2306 155.511C67.3908 156.301 68.4861 156.45 69.3158 156.048C69.4292 155.993 69.8894 155.773 70.006 155.715C70.8357 155.316 71.3995 154.367 71.5065 152.967V152.97Z" fill="#F0F0F0"/>
<path d="M66.9923 145.361C69.3159 146.942 71.027 150.498 70.8196 153.301C70.609 156.104 68.5576 157.092 66.234 155.511C63.9104 153.929 62.1993 150.374 62.4067 147.571C62.6173 144.768 64.6687 143.779 66.9923 145.361Z" fill="#E1E1E1"/>
<path d="M70.8195 153.301C71.0302 150.497 69.3158 146.942 66.9922 145.361C65.832 144.57 64.7399 144.421 63.9102 144.82C63.6769 144.93 62.7565 145.374 62.5264 145.487C61.6968 145.886 61.1329 146.832 61.0292 148.232C60.8186 151.035 62.5329 154.591 64.8565 156.172C66.0167 156.963 67.1089 157.112 67.9352 156.713C68.1686 156.603 69.0889 156.159 69.319 156.046C70.1487 155.647 70.7126 154.701 70.8195 153.297V153.301Z" fill="#F1B251"/>
<path opacity="0.35" d="M70.8195 153.301C71.0302 150.497 69.3158 146.942 66.9922 145.361C65.832 144.57 64.7399 144.421 63.9102 144.82C63.6769 144.93 62.7565 145.374 62.5264 145.487C61.6968 145.886 61.1329 146.832 61.0292 148.232C60.8186 151.035 62.5329 154.591 64.8565 156.172C66.0167 156.963 67.1089 157.112 67.9352 156.713C68.1686 156.603 69.0889 156.159 69.319 156.046C70.1487 155.647 70.7126 154.701 70.8195 153.297V153.301Z" fill="#F1B251"/>
<path d="M65.6154 146.025C67.939 147.607 69.6501 151.162 69.4427 153.965C69.232 156.768 67.1806 157.757 64.857 156.175C62.5334 154.594 60.8223 151.038 61.0297 148.235C61.2404 145.432 63.2918 144.444 65.6154 146.025Z" fill="#EFA12F"/>
<path d="M64.9541 148.764C66.1726 149.597 67.0735 151.463 66.9634 152.935C66.8532 154.406 65.774 154.928 64.5555 154.095C63.337 153.262 62.436 151.395 62.5462 149.924C62.6564 148.453 63.7356 147.931 64.9541 148.764Z" fill="#1A2E35"/>
<path d="M66.117 150.215L64.6489 151.476L63.2295 148.53C63.6638 148.319 64.2406 148.397 64.8466 148.812C65.3327 149.146 65.7702 149.645 66.1137 150.215H66.117Z" fill="#375A64"/>
<path d="M66.8593 152.986C66.8042 153.722 66.506 154.221 66.0718 154.428L64.6523 151.479L66.1204 150.219C66.6292 151.078 66.9273 152.105 66.8625 152.986H66.8593Z" fill="#2B454E"/>
<path d="M66.0691 154.429C65.6316 154.639 65.058 154.561 64.4488 154.147C63.9594 153.813 63.5252 153.314 63.1816 152.74L64.6465 151.479L66.0659 154.429H66.0691Z" fill="#375A64"/>
<path d="M64.6494 151.479L63.1846 152.74C62.6726 151.881 62.3776 150.857 62.4425 149.975C62.4976 149.24 62.7957 148.741 63.23 148.533L64.6494 151.479Z" fill="#2B454E"/>
<path d="M97.3869 195.716C97.3577 195.55 97.1957 195.443 97.0369 195.466C96.8716 195.495 96.7614 195.651 96.7873 195.816C97.1179 197.767 96.5313 198.914 95.6142 199.562C94.2984 200.489 91.8128 200.723 90.2929 199.42C86.2484 195.962 85.8466 187.604 85.4771 180.938C85.3248 178.144 85.1887 175.733 84.8128 174.106C84.8063 173.883 84.7383 169.793 87.117 165.285C87.3146 164.909 87.5091 164.543 87.7003 164.186C89.985 159.909 91.7901 156.532 90.7693 150.336C90.7401 150.17 90.5813 150.063 90.4225 150.086C90.2572 150.112 90.147 150.268 90.173 150.433C91.1614 156.425 89.4859 159.559 87.1688 163.898C86.9776 164.258 86.7799 164.624 86.5822 165C84.7609 168.451 84.3299 171.611 84.2327 173.157C82.7971 171.216 80.6322 169.936 78.5258 168.694C77.641 168.173 76.8049 167.68 76.0401 167.145C72.8998 164.961 69.7174 162.19 67.7082 156.746C67.6498 156.59 67.4748 156.509 67.3193 156.568C67.1637 156.626 67.0827 156.801 67.141 156.956C69.2086 162.556 72.472 165.402 75.6966 167.644C76.4808 168.189 77.3267 168.688 78.2211 169.216C80.5285 170.58 82.917 171.99 84.2295 174.255C84.5924 175.83 84.7253 178.212 84.8744 180.97C85.247 187.75 85.7105 196.189 89.8943 199.877C90.7466 200.629 91.9197 200.975 93.0475 200.894C93.8836 200.833 94.7392 200.762 95.8281 200.081C97.1211 199.271 97.6721 197.411 97.3869 195.719V195.716Z" fill="#F5F5F5"/>
<path d="M68.8905 213.539L69.3636 194.888L43.159 178.564L42.6826 197.215L68.8905 213.539Z" fill="black"/>
<path d="M68.6577 195.057L68.1457 213.078C66.9304 213.266 65.754 213.934 64.6133 215.071L65.0864 197.183C65.0864 197.183 65.8091 196.457 68.6545 195.057H68.6577Z" fill="#F5F5F5"/>
<path d="M64.3506 198.486C64.3766 197.53 65.0798 196.389 65.9192 195.939L68.583 194.509C69.4224 194.059 70.0803 194.467 70.0543 195.427L69.552 213.186L68.8942 213.542L69.3414 196.045C69.3576 195.472 68.9622 195.226 68.4599 195.498L66.0002 196.836C65.4979 197.108 65.0766 197.792 65.0604 198.366L64.6002 215.85L63.8516 216.251L64.3539 198.492L64.3506 198.486Z" fill="#1A2E35"/>
<path d="M63.8482 216.245L37.6436 199.921L38.1459 182.162C38.1718 181.206 38.875 180.065 39.7144 179.615L42.3783 178.186C42.7963 177.962 43.169 177.949 43.438 178.118L69.6426 194.441C69.3736 194.276 69.001 194.286 68.5829 194.509L65.919 195.938C65.0797 196.389 64.3764 197.53 64.3505 198.486L63.8514 216.245H63.8482Z" fill="#2B454E"/>
<path d="M64.8306 197.02C65.1158 196.56 65.5014 196.162 65.9195 195.938L68.5834 194.509C69.0014 194.285 69.3741 194.272 69.6431 194.441L43.4385 178.117C43.1695 177.952 42.7968 177.962 42.3788 178.185L39.7149 179.614C39.2968 179.841 38.9112 180.237 38.626 180.697L64.8274 197.02H64.8306Z" fill="#375A64"/>
<path d="M42.0605 182.859C43.6939 181.43 45.3078 180.571 46.899 180.26L48.1207 181.015C46.5263 181.326 44.9156 182.185 43.2823 183.614L42.0605 182.859Z" fill="#FAFAFA"/>
<path d="M59.3857 193.651C61.0191 192.222 62.633 191.363 64.2242 191.052L65.4459 191.807C63.8515 192.118 62.2408 192.977 60.6075 194.406L59.3857 193.651Z" fill="#FAFAFA"/>
<path d="M63.1874 200.055L62.5879 199.683C62.5879 199.683 62.6559 200.046 62.7985 200.153C62.9411 200.259 63.1874 200.055 63.1874 200.055Z" fill="black"/>
<path d="M63.0479 200.606C63.0479 200.606 62.3317 200.428 62.5326 199.643C62.7335 198.859 63.1937 198.577 63.0705 198.363C62.9474 198.149 59.1104 200.214 59.1104 200.214L62.1437 201.247L63.0479 200.603V200.606Z" fill="#5A97C5"/>
<path d="M37.4685 186.441L37.4297 186.418L37.4167 186.852L36.8398 205.535L61.4468 219.098C61.8292 219.334 62.15 219.243 62.1597 218.89L62.1792 218.255L62.7236 200.791L62.6037 200.732L37.4718 186.444L37.4685 186.441Z" fill="#5A97C5"/>
<path d="M57.3828 201.361L57.7231 202.508L61.8583 200.288C61.787 199.523 61.8259 198.992 62.312 198.648L57.3828 201.361Z" fill="#375A64"/>
<path d="M62.1601 200.712L61.6254 218.011C61.6157 218.313 61.3953 218.669 61.1296 218.812L57.0527 220.999L57.662 203.496C57.662 203.496 58.1546 203.026 58.08 202.456C58.0088 201.885 58.3847 202.148 58.3847 202.148L61.8588 200.281C62.0305 200.716 62.1601 200.709 62.1601 200.709V200.712Z" fill="#ECECEC"/>
<path d="M57.3864 201.708C57.38 201.886 57.4351 201.996 57.5096 201.957L57.6392 201.889C57.7818 201.811 57.892 202.035 57.8823 202.388C57.8693 202.741 57.7462 203.091 57.6036 203.169L57.4739 203.237C57.3994 203.276 57.3346 203.548 57.3249 203.847L33.4795 188.968C33.486 188.797 33.4957 188.531 33.4957 188.531C33.5216 188.447 33.5994 188.372 33.6286 188.353L33.7582 188.285C33.9008 188.207 34.0272 187.86 34.0369 187.507C34.0466 187.153 33.9364 186.93 33.7938 187.008L33.6642 187.076C33.5897 187.115 33.5378 187.004 33.5443 186.826L57.3897 201.704L57.3864 201.708Z" fill="#7BB8DD"/>
<path d="M33.5281 188.554L33.4892 188.531L33.4763 188.966L32.8994 207.648L56.0577 221.989C56.4402 222.225 56.7577 222.134 56.7707 221.781L56.7902 221.146L57.6619 203.5L33.5314 188.554H33.5281Z" fill="#5A97C5"/>
<path d="M33.5342 187.141L57.4573 201.957L57.642 200.891L33.7967 186.123C33.6249 186.334 33.5633 186.492 33.5504 186.625L33.5342 187.144V187.141Z" fill="#5A97C5"/>
<path d="M39.3936 183.226C39.3936 183.226 39.3612 183.209 39.345 183.203C39.3353 183.197 39.3256 183.193 39.3094 183.19C39.2835 183.184 39.2575 183.177 39.2284 183.177C39.2122 183.174 39.2024 183.174 39.1862 183.174C39.1376 183.174 39.089 183.174 39.0372 183.184C38.9853 183.19 38.9302 183.2 38.8751 183.216C38.8168 183.232 38.7585 183.252 38.6969 183.271C38.6612 183.281 38.6256 183.297 38.5932 183.313C38.564 183.326 38.5413 183.336 38.5089 183.349C38.4473 183.375 38.3825 183.407 38.3177 183.443L34.7723 185.348C34.377 185.562 34.0205 185.854 33.7969 186.126L57.6422 200.894L63.2487 198L39.4034 183.235L39.3969 183.229L39.3936 183.226Z" fill="#5A97C5"/>
<path d="M55.6656 199.666L52.791 197.887C54.554 196.435 56.3785 195.382 58.297 194.932L61.1716 196.711C59.2531 197.161 57.4285 198.215 55.6656 199.666Z" fill="#FAFAFA"/>
<path d="M39.6529 189.749L36.7783 187.97C38.5413 186.518 40.3658 185.465 42.2843 185.015L45.1589 186.794C43.2404 187.244 41.4158 188.298 39.6529 189.749Z" fill="#FAFAFA"/>
<path d="M58.6209 200.146L58.8769 200.625C58.3649 200.901 58.0214 201.28 57.9565 201.419C58.0959 201.481 58.2158 201.588 58.2968 201.743C58.4167 201.967 58.4362 202.245 58.4297 202.44C58.42 202.696 58.3649 203.004 58.2417 203.253C58.232 203.27 58.2255 203.289 58.2126 203.305C58.1316 203.461 58.0181 203.587 57.8788 203.668L57.3667 220.238L57.3473 220.802L57.3246 221.521C57.3214 221.667 57.2598 221.771 57.1691 221.823L56.6084 222.124C56.7186 222.066 56.764 221.956 56.7737 221.82V221.81L56.832 219.911L57.3278 203.889C57.3376 203.59 57.4024 203.315 57.4769 203.276L57.6065 203.208C57.6681 203.176 57.7297 203.091 57.7751 202.975C57.8399 202.829 57.882 202.631 57.8885 202.433C57.8982 202.08 57.788 201.857 57.6454 201.934L57.5158 202.002C57.4413 202.041 57.3894 201.931 57.3927 201.753L57.4056 201.435C57.4153 201.085 57.963 200.512 58.6209 200.155V200.146Z" fill="#7BB8DD"/>
<path opacity="0.6" d="M58.6209 200.146L58.8769 200.625C58.3649 200.901 58.0214 201.28 57.9565 201.419C58.0959 201.481 58.2158 201.588 58.2968 201.743C58.4167 201.967 58.4362 202.245 58.4297 202.44C58.42 202.696 58.3649 203.004 58.2417 203.253C58.232 203.27 58.2255 203.289 58.2126 203.305C58.1316 203.461 58.0181 203.587 57.8788 203.668L57.3667 220.238L57.3473 220.802L57.3246 221.521C57.3214 221.667 57.2598 221.771 57.1691 221.823L56.6084 222.124C56.7186 222.066 56.764 221.956 56.7737 221.82V221.81L56.832 219.911L57.3278 203.889C57.3376 203.59 57.4024 203.315 57.4769 203.276L57.6065 203.208C57.6681 203.176 57.7297 203.091 57.7751 202.975C57.8399 202.829 57.882 202.631 57.8885 202.433C57.8982 202.08 57.788 201.857 57.6454 201.934L57.5158 202.002C57.4413 202.041 57.3894 201.931 57.3927 201.753L57.4056 201.435C57.4153 201.085 57.963 200.512 58.6209 200.155V200.146Z" fill="#7BB8DD"/>
<path d="M58.8768 200.626L62.4254 198.72C62.4772 198.694 62.5258 198.668 62.5777 198.645L62.7041 198.594C62.7041 198.594 62.7106 198.59 62.717 198.59C62.3606 198.837 62.2147 199.384 62.205 199.796C62.1985 199.984 62.2147 200.253 62.3379 200.48C62.4286 200.648 62.568 200.765 62.7268 200.823V200.878C62.7268 200.917 62.7235 200.953 62.7203 200.989L62.2244 217.014C62.2244 217.014 62.2115 217.435 62.1953 217.934C62.192 218.019 62.1888 218.109 62.1856 218.2C62.1758 218.469 62.1694 218.745 62.1596 218.975C62.1434 219.088 62.0948 219.179 62.0008 219.231L62.1531 219.15L62.5615 218.933C62.6393 218.89 62.6944 218.809 62.7106 218.696C62.7106 218.696 62.7106 218.693 62.7106 218.689C62.7138 218.599 62.7138 218.502 62.7203 218.404C62.7203 218.346 62.7235 218.284 62.7268 218.226C62.7268 218.119 62.7332 218.015 62.7365 217.918C62.7365 217.85 62.743 217.785 62.743 217.727C62.743 217.678 62.7462 217.633 62.7462 217.591C62.7527 217.445 62.7559 217.354 62.7559 217.354L63.1481 204.628L63.2744 200.564C63.2842 200.276 63.2356 200.071 63.161 200.094C63.1513 200.094 63.1383 200.104 63.1351 200.104L63.0087 200.172C62.8531 200.256 62.7365 200.039 62.7462 199.686C62.7559 199.342 62.8823 199.125 63.0282 199.041L63.1805 198.96C63.2582 198.918 63.3231 198.843 63.3231 198.791C63.3231 198.765 63.3231 198.733 63.3231 198.697C63.3231 198.642 63.3263 198.571 63.3295 198.496C63.3295 198.422 63.336 198.334 63.3393 198.247C63.3393 198.13 63.2874 198.056 63.1869 198.017C63.1772 198.01 63.1675 198.007 63.1513 198.004C63.1254 197.997 63.0994 197.991 63.0703 197.991C63.0703 197.991 63.0444 197.988 63.0314 197.984C62.9828 197.984 62.9342 197.984 62.8823 197.994C62.8305 198.001 62.7754 198.01 62.7203 198.027C62.6619 198.043 62.6036 198.062 62.542 198.082C62.5064 198.091 62.4707 198.108 62.4383 198.124C62.4092 198.137 62.3865 198.146 62.3541 198.159C62.2925 198.185 62.2277 198.218 62.1629 198.253L58.6143 200.159L58.8703 200.639L58.8768 200.626Z" fill="#7BB8DD"/>
<path opacity="0.6" d="M58.8768 200.626L62.4254 198.72C62.4772 198.694 62.5258 198.668 62.5777 198.645L62.7041 198.594C62.7041 198.594 62.7106 198.59 62.717 198.59C62.3606 198.837 62.2147 199.384 62.205 199.796C62.1985 199.984 62.2147 200.253 62.3379 200.48C62.4286 200.648 62.568 200.765 62.7268 200.823V200.878C62.7268 200.917 62.7235 200.953 62.7203 200.989L62.2244 217.014C62.2244 217.014 62.2115 217.435 62.1953 217.934C62.192 218.019 62.1888 218.109 62.1856 218.2C62.1758 218.469 62.1694 218.745 62.1596 218.975C62.1434 219.088 62.0948 219.179 62.0008 219.231L62.1531 219.15L62.5615 218.933C62.6393 218.89 62.6944 218.809 62.7106 218.696C62.7106 218.696 62.7106 218.693 62.7106 218.689C62.7138 218.599 62.7138 218.502 62.7203 218.404C62.7203 218.346 62.7235 218.284 62.7268 218.226C62.7268 218.119 62.7332 218.015 62.7365 217.918C62.7365 217.85 62.743 217.785 62.743 217.727C62.743 217.678 62.7462 217.633 62.7462 217.591C62.7527 217.445 62.7559 217.354 62.7559 217.354L63.1481 204.628L63.2744 200.564C63.2842 200.276 63.2356 200.071 63.161 200.094C63.1513 200.094 63.1383 200.104 63.1351 200.104L63.0087 200.172C62.8531 200.256 62.7365 200.039 62.7462 199.686C62.7559 199.342 62.8823 199.125 63.0282 199.041L63.1805 198.96C63.2582 198.918 63.3231 198.843 63.3231 198.791C63.3231 198.765 63.3231 198.733 63.3231 198.697C63.3231 198.642 63.3263 198.571 63.3295 198.496C63.3295 198.422 63.336 198.334 63.3393 198.247C63.3393 198.13 63.2874 198.056 63.1869 198.017C63.1772 198.01 63.1675 198.007 63.1513 198.004C63.1254 197.997 63.0994 197.991 63.0703 197.991C63.0703 197.991 63.0444 197.988 63.0314 197.984C62.9828 197.984 62.9342 197.984 62.8823 197.994C62.8305 198.001 62.7754 198.01 62.7203 198.027C62.6619 198.043 62.6036 198.062 62.542 198.082C62.5064 198.091 62.4707 198.108 62.4383 198.124C62.4092 198.137 62.3865 198.146 62.3541 198.159C62.2925 198.185 62.2277 198.218 62.1629 198.253L58.6143 200.159L58.8703 200.639L58.8768 200.626Z" fill="#7BB8DD"/>
<path d="M57.153 140.185C48.228 141.889 47.5637 144.294 45.0618 153.575C42.4595 163.233 41.6331 166.146 40.3887 170.392C39.1442 174.637 38.9206 176.021 38.8914 180.088C38.8428 187.182 39.0081 192.84 38.8623 198.826C38.8363 199.85 38.1752 201.778 37.9257 204.021C37.6535 206.471 37.6924 211.137 37.9775 212.677C38.2012 213.885 39.7924 216.07 41.5002 217.525C42.197 218.118 45.6354 218.773 47.0873 218.773C48.5391 218.773 49.2488 217.723 49.2488 217.723L46.5299 216.037C46.5299 216.037 45.9627 213.617 46.0405 211.717C46.1183 209.818 47.2752 210.217 47.5345 211.581C47.7937 212.946 48.1308 214.485 48.6882 215.279C49.2456 216.073 50.5808 216.608 50.5289 215.279C50.4771 213.95 50.5549 210.243 50.3507 209.261C49.7025 206.114 47.7063 201.645 47.7063 199.626C47.7063 195.64 51.0799 178.325 51.0799 178.325C51.0799 178.325 55.8762 163.79 56.9553 160.206C57.8919 157.095 60.2674 147.188 57.1498 140.185H57.153Z" fill="#FFDDC3"/>
<path d="M78.7461 118.99C78.7461 118.99 80.5706 122.082 82.2234 123.488C81.4165 124.516 79.6891 124.273 79.6891 124.273" fill="#FFB178"/>
<path d="M78.7461 118.99C78.7461 118.99 80.5706 122.082 82.2234 123.488C81.4165 124.516 79.6891 124.273 79.6891 124.273" stroke="#231F20" stroke-width="0.5" stroke-miterlimit="10"/>
</svg>
