<svg width="20" height="20" viewBox="0 0 20 20" fill="none" xmlns="http://www.w3.org/2000/svg">
<g clip-path="url(#clip0_7663_8244)">
<path d="M9.96388 0C12.6071 0.00131783 15.0881 1.03023 16.9536 2.89791C18.8191 4.7655 19.846 7.24829 19.845 9.88814C19.8428 15.2819 15.498 19.6802 10.1271 19.7677L9.96411 19.769H9.96C8.33171 19.7684 6.73132 19.3664 5.30488 18.6027L5.23822 18.5666L0 19.9405L1.40178 14.82C0.537209 13.3219 0.0822481 11.6219 0.0829457 9.88023C0.0851163 4.4324 4.51775 0 9.96388 0ZM9.96729 1.66899C5.43729 1.66899 1.75302 5.35295 1.75124 9.88109C1.75062 11.4091 2.17171 12.8982 2.96977 14.1921L3.00682 14.2517L3.20217 14.5625L2.37248 17.5929L5.48078 16.7777L5.7807 16.9555C7.02155 17.6919 8.44116 18.0872 9.89054 18.1L9.9607 18.1003H9.96411C14.4906 18.1003 18.1748 14.4161 18.1767 9.88767C18.1774 7.69326 17.3241 5.62977 15.7735 4.07744C14.2229 2.52519 12.1609 1.66969 9.96729 1.66891V1.66899ZM6.46574 5.31729C6.63023 5.31729 6.79519 5.31884 6.93891 5.3262C7.09054 5.33364 7.29403 5.2686 7.49434 5.74992C7.57124 5.93442 7.68814 6.21946 7.80783 6.51062L7.83349 6.57302C8.02612 7.04163 8.21868 7.50884 8.25574 7.58302C8.31736 7.70651 8.35845 7.85085 8.2762 8.0155C8.19403 8.18039 8.15271 8.28326 8.02938 8.4276C7.90589 8.57163 7.77015 8.74953 7.65907 8.86008C7.65301 8.86608 7.64696 8.8721 7.64093 8.87814L7.62295 8.89651C7.51287 9.01039 7.42077 9.14093 7.55085 9.36372C7.69481 9.61101 8.19023 10.4197 8.92419 11.0743C9.86721 11.9153 10.6628 12.1761 10.9097 12.2998C11.1565 12.4233 11.3006 12.4027 11.4446 12.2378C11.5887 12.0731 12.0617 11.517 12.2264 11.2698C12.3909 11.0226 12.5555 11.064 12.7819 11.1463C12.8894 11.1854 13.2202 11.3409 13.5642 11.5067L13.6712 11.5583C14.0156 11.725 14.3515 11.8907 14.4688 11.9495C14.7157 12.0731 14.8804 12.1349 14.942 12.2378C15.0037 12.3409 15.0037 12.835 14.798 13.4118C14.5923 13.9885 13.6059 14.5149 13.1316 14.5859C12.7062 14.6493 12.168 14.6758 11.5765 14.4881C11.2181 14.3741 10.7581 14.2222 10.169 13.9679C7.6924 12.8986 6.07481 10.4047 5.95147 10.24L5.9431 10.2288C5.79264 10.0278 4.94326 8.87651 4.94326 7.68589C4.94326 6.47078 5.58116 5.87349 5.80736 5.62628C6.03372 5.3793 6.30116 5.31729 6.46574 5.31729Z" fill="#60D669"/>
</g>
<defs>
<clipPath id="clip0_7663_8244">
<rect width="19.845" height="20" fill="white"/>
</clipPath>
</defs>
</svg>
